<svg version="1.1" id="Layer_1" xmlns="http://www.w3.org/2000/svg" xmlns:xlink="http://www.w3.org/1999/xlink" x="0px" y="0px"
	 width="100%" viewBox="0 0 2560 2560" enable-background="new 0 0 2560 2560" xml:space="preserve">
<path fill="#ffffff" opacity="1.000000" stroke="none"
	d="
M1682.000000,2562.000000
	C1121.333374,2562.000000 561.666687,2562.000000 2.000000,2562.000000
	C2.000000,1708.666626 2.000000,855.333313 2.000000,2.000000
	C855.333313,2.000000 1708.666626,2.000000 2562.000000,2.000000
	C2562.000000,855.333313 2562.000000,1708.666626 2562.000000,2562.000000
	C2269.000000,2562.000000 1976.000000,2562.000000 1682.000000,2562.000000
M1352.341064,696.956360
	C1352.127930,698.173828 1351.914673,699.391296 1350.132812,701.275024
	C1339.914062,704.171448 1328.995117,705.647522 1319.625122,710.265930
	C1301.307129,719.294739 1281.927734,725.169006 1262.923706,732.194702
	C1199.097900,755.790466 1145.367798,794.049255 1100.339478,844.757690
	C1090.872314,855.419189 1082.169556,866.759644 1072.710327,878.279480
	C1058.320923,861.284424 1039.027466,858.494019 1018.271851,859.865845
	C989.751526,861.750977 963.758362,871.573975 938.897156,884.910828
	C910.843628,899.960449 885.342346,918.613525 862.515686,940.769348
	C840.855591,961.793030 822.912537,985.645874 809.246338,1012.691833
	C796.215271,1038.480713 788.482666,1066.040283 782.153503,1093.967285
	C765.014709,1169.590820 757.212158,1246.402954 754.107178,1323.766357
	C750.479614,1414.151611 752.991394,1504.365112 761.755188,1594.396362
	C766.859070,1646.830078 774.950439,1698.769165 787.830261,1749.908325
	C807.687317,1828.750732 838.671753,1902.594971 885.815796,1969.256836
	C914.056458,2009.189209 948.859192,2042.465454 989.327026,2069.579590
	C1056.479004,2114.572998 1131.674805,2138.068359 1210.911743,2149.995361
	C1247.530518,2155.507324 1284.419800,2158.012939 1321.437134,2158.809814
	C1385.274780,2160.184082 1448.617920,2156.285889 1511.075684,2141.981689
	C1557.626587,2131.321045 1602.811646,2116.789307 1645.813721,2095.809082
	C1673.814087,2082.147949 1699.087158,2064.402588 1723.353149,2045.004272
	C1757.694824,2017.551392 1787.444580,1985.878174 1812.655884,1949.889160
	C1820.274048,1939.014404 1827.150146,1927.447876 1835.935791,1917.598511
	C1854.311646,1896.997925 1869.017456,1874.231201 1880.342285,1849.186157
	C1883.078979,1843.133911 1885.588257,1836.928711 1887.577026,1830.597534
	C1894.076172,1809.906738 1884.252563,1783.931030 1858.193237,1777.785522
	C1849.208984,1775.666748 1839.765991,1774.579468 1830.531128,1774.570679
	C1640.876831,1774.390991 1451.222412,1774.426880 1261.567993,1774.483276
	C1256.258301,1774.484741 1250.905518,1774.875977 1245.646851,1775.613281
	C1224.044678,1778.641846 1209.704346,1791.542847 1205.887573,1813.180420
	C1203.940552,1824.218262 1204.502319,1835.704712 1204.026489,1846.992432
	C1203.865479,1850.812378 1204.000977,1854.644897 1204.000977,1859.146118
	C1162.255249,1835.772461 1080.088989,1719.504150 1083.887207,1690.326416
	C1084.529419,1690.201294 1085.432861,1689.737915 1085.774414,1690.001831
	C1090.780151,1693.869019 1095.812622,1697.712769 1100.642944,1701.793701
	C1136.411499,1732.013428 1177.085327,1751.102661 1223.890747,1756.430298
	C1229.834473,1757.106934 1235.928833,1757.510376 1241.620850,1759.176514
	C1273.930542,1768.633667 1306.889648,1767.442993 1339.838257,1765.233154
	C1349.382202,1764.593140 1358.940918,1762.301514 1368.201904,1759.722534
	C1385.413208,1754.929810 1398.352051,1744.734497 1405.887451,1728.019653
	C1407.411377,1724.639404 1410.594849,1721.728760 1413.599854,1719.339233
	C1435.932861,1701.580444 1453.256958,1679.855469 1464.459717,1653.662476
	C1467.781250,1645.896240 1469.634644,1637.066040 1470.126465,1628.605103
	C1471.811401,1599.617188 1448.118530,1584.290405 1423.160156,1595.995728
	C1421.355103,1596.842407 1419.485962,1597.594727 1417.580566,1598.174316
	C1415.556641,1598.789795 1413.454346,1599.147461 1411.126343,1599.676636
	C1411.126343,1511.042969 1411.126343,1423.219482 1411.126343,1335.184448
	C1412.715698,1335.309814 1413.754883,1335.178467 1414.635132,1335.492554
	C1432.211182,1341.765137 1449.860840,1348.085815 1465.366821,1358.670776
	C1491.506226,1376.514404 1511.192749,1400.280273 1519.082031,1430.922607
	C1529.546021,1471.564697 1531.569092,1513.187622 1524.197876,1554.852295
	C1515.529785,1603.847900 1497.442993,1648.125854 1460.237671,1682.982300
	C1455.998901,1686.953369 1452.768921,1692.466064 1450.357300,1697.841064
	C1440.796997,1719.149780 1453.991333,1739.527710 1477.343018,1739.100098
	C1486.222534,1738.937500 1495.245850,1737.211060 1503.883301,1734.964844
	C1533.554077,1727.248413 1558.469116,1710.598145 1581.702026,1691.400269
	C1612.072876,1666.304077 1636.797485,1636.553955 1654.790894,1601.228394
	C1672.050659,1567.342896 1683.797241,1531.853882 1687.832764,1494.019287
	C1692.246460,1452.638794 1689.714966,1411.565552 1681.980957,1370.671997
	C1669.135864,1302.753296 1630.358643,1253.364014 1572.694214,1217.880005
	C1532.681641,1193.258179 1488.607666,1178.077881 1443.407715,1166.054077
	C1432.538574,1163.162842 1421.614380,1160.477905 1411.042725,1157.781494
	C1408.879028,1126.710938 1409.922485,870.143799 1412.325073,862.095764
	C1415.446411,863.118774 1418.623901,863.976074 1421.661255,865.185364
	C1442.681763,873.554260 1463.642822,882.072937 1484.682617,890.392456
	C1504.024414,898.040649 1523.950562,901.787903 1544.182739,894.970703
	C1554.817627,891.387207 1565.213379,886.468323 1574.863037,880.718933
	C1594.445190,869.051575 1612.375977,855.157227 1624.824341,835.533813
	C1635.436279,818.805237 1638.135620,800.986816 1630.835327,782.125549
	C1630.296753,780.734192 1630.172729,779.182312 1629.804443,777.465027
	C1633.060059,777.465027 1635.681152,777.403564 1638.298706,777.474487
	C1666.347412,778.233948 1692.777954,771.927368 1716.299316,756.714966
	C1742.626587,739.687744 1767.271606,720.281921 1788.919678,697.438843
	C1801.811768,683.834961 1812.870361,668.833130 1819.974121,651.264526
	C1827.652954,632.273987 1829.366699,612.800415 1820.970215,593.903015
	C1810.642456,570.659119 1792.986328,553.433472 1771.074585,541.001770
	C1757.787231,533.463135 1743.654297,527.394531 1729.804199,520.871399
	C1658.397461,487.240265 1582.907227,469.305267 1504.428101,464.457367
	C1431.316406,459.941010 1358.616577,464.793915 1286.421631,477.661743
	C1178.266479,496.939087 1081.759521,541.650452 995.639526,609.417358
	C953.331360,642.709167 915.004700,680.140015 880.498535,721.411438
	C856.546570,750.059265 833.863647,779.684937 817.034607,813.287048
	C808.121277,831.084167 801.948242,849.562439 803.833313,869.905273
	C806.125671,894.643494 821.125549,910.155884 845.758972,913.171753
	C860.921143,915.028015 874.259155,909.737000 885.914734,901.004028
	C906.435669,885.628662 926.883850,870.056152 946.315002,853.348022
	C981.505920,823.088684 1018.362915,795.261475 1058.138672,771.303223
	C1093.916382,749.753052 1131.499634,732.077820 1171.036255,718.682251
	C1211.630981,704.928162 1253.394775,696.611938 1296.229248,694.827698
	C1314.812012,694.053650 1333.481689,695.368469 1352.341064,696.956360
z"/>
<path fill="#F6F6F6" opacity="1.000000" stroke="none"
	d="
M1352.111938,695.734497
	C1333.481689,695.368469 1314.812012,694.053650 1296.229248,694.827698
	C1253.394775,696.611938 1211.630981,704.928162 1171.036255,718.682251
	C1131.499634,732.077820 1093.916382,749.753052 1058.138672,771.303223
	C1018.362915,795.261475 981.505920,823.088684 946.315002,853.348022
	C926.883850,870.056152 906.435669,885.628662 885.914734,901.004028
	C874.259155,909.737000 860.921143,915.028015 845.758972,913.171753
	C821.125549,910.155884 806.125671,894.643494 803.833313,869.905273
	C801.948242,849.562439 808.121277,831.084167 817.034607,813.287048
	C833.863647,779.684937 856.546570,750.059265 880.498535,721.411438
	C915.004700,680.140015 953.331360,642.709167 995.639526,609.417358
	C1081.759521,541.650452 1178.266479,496.939087 1286.421631,477.661743
	C1358.616577,464.793915 1431.316406,459.941010 1504.428101,464.457367
	C1582.907227,469.305267 1658.397461,487.240265 1729.804199,520.871399
	C1743.654297,527.394531 1757.787231,533.463135 1771.074585,541.001770
	C1792.986328,553.433472 1810.642456,570.659119 1820.970215,593.903015
	C1829.366699,612.800415 1827.652954,632.273987 1819.974121,651.264526
	C1812.870361,668.833130 1801.811768,683.834961 1788.919678,697.438843
	C1767.271606,720.281921 1742.626587,739.687744 1716.299316,756.714966
	C1692.777954,771.927368 1666.347412,778.233948 1638.298706,777.474487
	C1635.681152,777.403564 1633.060059,777.465027 1629.804443,777.465027
	C1630.172729,779.182312 1630.296753,780.734192 1630.835327,782.125549
	C1638.135620,800.986816 1635.436279,818.805237 1624.824341,835.533813
	C1612.375977,855.157227 1594.445190,869.051575 1574.863037,880.718933
	C1565.213379,886.468323 1554.817627,891.387207 1544.182739,894.970703
	C1523.950562,901.787903 1504.024414,898.040649 1484.682617,890.392456
	C1463.642822,882.072937 1442.681763,873.554260 1421.661255,865.185364
	C1418.623901,863.976074 1415.446411,863.118774 1412.325073,862.095764
	C1409.922485,870.143799 1408.879028,1126.710938 1411.042725,1157.781494
	C1421.614380,1160.477905 1432.538574,1163.162842 1443.407715,1166.054077
	C1488.607666,1178.077881 1532.681641,1193.258179 1572.694214,1217.880005
	C1630.358643,1253.364014 1669.135864,1302.753296 1681.980957,1370.671997
	C1689.714966,1411.565552 1692.246460,1452.638794 1687.832764,1494.019287
	C1683.797241,1531.853882 1672.050659,1567.342896 1654.790894,1601.228394
	C1636.797485,1636.553955 1612.072876,1666.304077 1581.702026,1691.400269
	C1558.469116,1710.598145 1533.554077,1727.248413 1503.883301,1734.964844
	C1495.245850,1737.211060 1486.222534,1738.937500 1477.343018,1739.100098
	C1453.991333,1739.527710 1440.796997,1719.149780 1450.357300,1697.841064
	C1452.768921,1692.466064 1455.998901,1686.953369 1460.237671,1682.982300
	C1497.442993,1648.125854 1515.529785,1603.847900 1524.197876,1554.852295
	C1531.569092,1513.187622 1529.546021,1471.564697 1519.082031,1430.922607
	C1511.192749,1400.280273 1491.506226,1376.514404 1465.366821,1358.670776
	C1449.860840,1348.085815 1432.211182,1341.765137 1414.635132,1335.492554
	C1413.754883,1335.178467 1412.715698,1335.309814 1411.126343,1335.184448
	C1411.126343,1423.219482 1411.126343,1511.042969 1411.126343,1599.676636
	C1413.454346,1599.147461 1415.556641,1598.789795 1417.580566,1598.174316
	C1419.485962,1597.594727 1421.355103,1596.842407 1423.160156,1595.995728
	C1448.118530,1584.290405 1471.811401,1599.617188 1470.126465,1628.605103
	C1469.634644,1637.066040 1467.781250,1645.896240 1464.459717,1653.662476
	C1453.256958,1679.855469 1435.932861,1701.580444 1413.599854,1719.339233
	C1410.594849,1721.728760 1407.411377,1724.639404 1405.887451,1728.019653
	C1398.352051,1744.734497 1385.413208,1754.929810 1368.201904,1759.722534
	C1358.940918,1762.301514 1349.382202,1764.593140 1339.838257,1765.233154
	C1306.889648,1767.442993 1273.930542,1768.633667 1241.620850,1759.176514
	C1235.928833,1757.510376 1229.834473,1757.106934 1223.890747,1756.430298
	C1177.085327,1751.102661 1136.411499,1732.013428 1100.642944,1701.793701
	C1095.812622,1697.712769 1090.780151,1693.869019 1085.774414,1690.001831
	C1085.432861,1689.737915 1084.529419,1690.201294 1083.887695,1690.329102
	C1080.088989,1719.504150 1162.255249,1835.772461 1204.000977,1859.146118
	C1204.000977,1854.644897 1203.865479,1850.812378 1204.026489,1846.992432
	C1204.502319,1835.704712 1203.940552,1824.218262 1205.887573,1813.180420
	C1209.704346,1791.542847 1224.044678,1778.641846 1245.646851,1775.613281
	C1250.905518,1774.875977 1256.258301,1774.484741 1261.567993,1774.483276
	C1451.222412,1774.426880 1640.876831,1774.390991 1830.531128,1774.570679
	C1839.765991,1774.579468 1849.208984,1775.666748 1858.193237,1777.785522
	C1884.252563,1783.931030 1894.076172,1809.906738 1887.577026,1830.597534
	C1885.588257,1836.928711 1883.078979,1843.133911 1880.342285,1849.186157
	C1869.017456,1874.231201 1854.311646,1896.997925 1835.935791,1917.598511
	C1827.150146,1927.447876 1820.274048,1939.014404 1812.655884,1949.889160
	C1787.444580,1985.878174 1757.694824,2017.551392 1723.353149,2045.004272
	C1699.087158,2064.402588 1673.814087,2082.147949 1645.813721,2095.809082
	C1602.811646,2116.789307 1557.626587,2131.321045 1511.075684,2141.981689
	C1448.617920,2156.285889 1385.274780,2160.184082 1321.437134,2158.809814
	C1284.419800,2158.012939 1247.530518,2155.507324 1210.911743,2149.995361
	C1131.674805,2138.068359 1056.479004,2114.572998 989.327026,2069.579590
	C948.859192,2042.465454 914.056458,2009.189209 885.815796,1969.256836
	C838.671753,1902.594971 807.687317,1828.750732 787.830261,1749.908325
	C774.950439,1698.769165 766.859070,1646.830078 761.755188,1594.396362
	C752.991394,1504.365112 750.479614,1414.151611 754.107178,1323.766357
	C757.212158,1246.402954 765.014709,1169.590820 782.153503,1093.967285
	C788.482666,1066.040283 796.215271,1038.480713 809.246338,1012.691833
	C822.912537,985.645874 840.855591,961.793030 862.515686,940.769348
	C885.342346,918.613525 910.843628,899.960449 938.897156,884.910828
	C963.758362,871.573975 989.751526,861.750977 1018.271851,859.865845
	C1039.027466,858.494019 1058.320923,861.284424 1072.710327,878.279480
	C1082.169556,866.759644 1090.872314,855.419189 1100.339478,844.757690
	C1145.367798,794.049255 1199.097900,755.790466 1262.923706,732.194702
	C1281.927734,725.169006 1301.307129,719.294739 1319.625122,710.265930
	C1328.995117,705.647522 1339.914062,704.171448 1351.713013,701.109497
	C1363.318848,699.685364 1373.212402,700.096924 1382.664429,703.977844
	C1391.378296,707.555786 1399.877686,705.446472 1408.499512,703.608459
	C1389.840820,699.663208 1371.285522,695.473022 1352.111938,695.734497
M1072.598511,1012.779785
	C1088.614746,986.560730 1111.123901,967.063354 1137.229492,951.645935
	C1157.529541,939.657104 1179.149902,932.856445 1203.396240,940.179260
	C1203.396240,922.394775 1203.396240,905.046692 1203.396240,887.268311
	C1201.779053,887.732849 1200.729248,887.770325 1200.013794,888.278503
	C1178.057861,903.871643 1155.752930,919.008667 1134.323120,935.296753
	C1116.097290,949.149719 1099.464600,965.210693 1077.185913,972.419067
	C1074.180542,986.517578 1071.270752,1000.167969 1067.665894,1015.049561
	C1067.149780,1017.893494 1066.633789,1020.737427 1065.687866,1025.951294
	C1067.903198,1022.752747 1068.935669,1021.624878 1069.542725,1020.301819
	C1070.483276,1018.251709 1071.133545,1016.068420 1072.598511,1012.779785
M1712.838257,2023.936035
	C1749.122681,1993.048584 1779.988403,1959.595825 1783.517578,1947.557983
	C1771.354736,1948.192017 1759.081543,1949.379395 1746.807373,1949.388794
	C1585.155884,1949.513428 1423.504272,1949.484009 1261.852661,1949.422363
	C1256.209595,1949.420288 1250.519287,1949.020630 1244.932373,1948.230347
	C1224.622314,1945.357300 1210.215088,1932.145386 1205.980347,1912.025757
	C1204.355469,1904.305786 1204.036377,1896.311035 1203.128052,1888.490234
	C1197.419312,1884.353271 1191.529785,1880.537598 1186.141602,1876.111694
	C1118.998901,1820.959229 1073.728271,1751.242188 1049.828247,1667.960571
	C1029.632690,1597.587891 1018.736694,1525.470947 1014.400818,1452.463623
	C1009.911621,1376.875854 1010.184998,1301.272095 1015.473938,1225.670654
	C1019.153137,1173.079346 1026.945923,1121.044312 1035.169556,1069.076538
	C1040.370483,1036.210693 1047.449951,1003.642273 1053.674561,970.938110
	C1054.351196,967.382507 1054.987793,964.187256 1052.441895,960.591125
	C1045.903809,951.355835 1044.450073,940.846313 1047.820557,930.105286
	C1050.298462,922.209106 1053.286499,914.387329 1056.949951,906.978821
	C1059.405396,902.013000 1058.949951,898.227173 1055.703369,894.240234
	C1051.339355,888.880920 1045.874268,885.072693 1039.053101,883.994873
	C1033.498657,883.117188 1027.763794,882.531555 1022.174438,882.876953
	C1002.018127,884.122375 982.808533,889.393860 964.552917,897.964844
	C934.161987,912.233154 906.864563,931.060486 882.352783,954.001770
	C858.233887,976.575195 838.788330,1002.489624 825.431458,1032.804199
	C811.632202,1064.122803 804.463196,1097.354370 798.152405,1130.717651
	C785.059875,1199.934692 778.205627,1269.885864 776.560730,1340.264893
	C774.277039,1437.972412 776.538208,1535.498901 789.543701,1632.590454
	C798.414612,1698.816162 811.962341,1763.787109 836.153809,1826.273438
	C856.339172,1878.412231 881.812012,1927.642944 916.630005,1971.632080
	C942.704041,2004.574097 973.798340,2032.055786 1009.138123,2054.765869
	C1052.140503,2082.399902 1098.899536,2101.238281 1148.262451,2113.771484
	C1205.354736,2128.267578 1263.515015,2134.616211 1322.327881,2135.974854
	C1401.811768,2137.811279 1479.994507,2129.872559 1556.172729,2106.025391
	C1592.795776,2094.561035 1628.725342,2081.308105 1661.275269,2060.660156
	C1678.670654,2049.625244 1694.947388,2036.827026 1712.838257,2023.936035
M939.475830,828.502014
	C942.591064,825.996826 945.634521,823.395691 948.832886,821.001648
	C973.083252,802.850464 996.733459,783.808411 1021.789978,766.845032
	C1055.464722,744.047119 1091.413818,725.142761 1129.110596,709.620422
	C1177.498413,689.695984 1227.686157,677.175781 1279.749146,672.354431
	C1335.098267,667.228821 1389.456909,673.522644 1443.095093,687.404114
	C1485.428955,698.360046 1525.890381,714.514771 1566.109253,731.384583
	C1579.896240,737.167480 1593.574829,743.392151 1607.762207,748.000854
	C1642.374023,759.244202 1675.677002,755.579834 1706.252197,735.501404
	C1730.786865,719.389648 1753.890625,701.245728 1773.834351,679.559692
	C1785.588257,666.779053 1795.764404,652.837708 1800.688232,635.641724
	C1805.566406,618.604736 1802.583618,603.115112 1791.769897,589.526917
	C1785.801270,582.027039 1778.515503,575.504395 1771.399414,569.005676
	C1761.124390,559.622009 1747.835571,555.440674 1735.679077,549.336792
	C1672.234985,517.480408 1605.112305,497.752197 1534.582031,490.502686
	C1449.511230,481.758636 1364.921753,486.309448 1280.910889,502.346222
	C1178.723755,521.852722 1087.904297,565.591003 1006.774658,630.203735
	C974.909241,655.581726 945.449158,683.479187 918.122986,713.683594
	C891.924377,742.641541 867.219055,772.772522 847.346191,806.469421
	C840.291321,818.431946 834.748169,831.387878 829.540710,844.303955
	C825.780334,853.630920 824.839417,863.691833 827.767151,873.718689
	C830.677673,883.686279 837.555847,889.159058 847.937744,890.175171
	C857.181030,891.079773 865.061462,887.812134 872.011780,882.336731
	C894.240112,864.825195 916.286865,847.083130 939.475830,828.502014
M1377.207642,1310.001953
	C1396.909668,1316.020386 1416.811035,1321.460938 1436.271973,1328.177979
	C1476.590698,1342.093872 1506.069580,1368.818604 1525.418213,1406.648193
	C1529.020630,1413.691162 1532.080688,1421.296875 1533.745117,1428.998657
	C1543.913452,1476.048218 1546.351929,1523.347290 1535.887085,1570.702148
	C1525.933350,1615.743774 1507.944946,1656.704224 1474.072510,1689.376831
	C1470.747314,1692.583984 1467.862061,1696.359497 1465.303589,1700.222900
	C1461.619629,1705.785156 1460.382080,1711.924438 1463.569580,1718.201294
	C1466.866089,1724.692993 1473.009033,1724.743530 1479.142822,1724.643677
	C1493.081055,1724.416870 1505.993164,1720.095337 1518.549072,1714.565308
	C1544.463867,1703.151855 1566.494995,1686.205566 1587.206787,1667.112793
	C1623.444946,1633.707520 1647.197388,1592.604370 1661.985596,1546.204834
	C1680.468506,1488.212891 1678.584595,1429.440186 1667.042236,1370.378784
	C1655.176147,1309.660767 1620.140015,1265.440918 1569.340332,1232.779907
	C1531.771484,1208.625488 1490.140137,1193.275635 1447.127441,1182.252808
	C1409.114746,1172.511108 1370.586792,1164.786133 1332.308228,1156.074341
	C1310.506104,1151.112427 1289.004150,1145.052490 1269.614746,1133.551514
	C1241.063110,1116.615967 1221.724609,1092.802856 1215.602905,1059.337891
	C1211.087036,1034.651367 1209.959473,1009.745056 1209.798706,984.738220
	C1209.766724,979.749451 1209.832764,974.701233 1209.116821,969.787842
	C1207.518799,958.823486 1201.859131,953.504883 1190.772217,951.977783
	C1181.680664,950.725464 1172.824585,951.875916 1164.234009,955.044312
	C1137.300903,964.977905 1115.647095,982.235657 1096.969849,1003.607605
	C1079.723999,1023.341675 1072.567383,1046.796387 1071.883423,1072.520752
	C1071.653564,1081.171997 1071.627319,1089.880371 1072.330688,1098.495483
	C1074.483154,1124.860718 1078.990479,1150.888428 1091.542480,1174.446045
	C1112.861694,1214.457764 1146.151978,1242.017456 1186.745361,1260.802002
	C1222.835693,1277.503052 1260.853760,1288.597900 1299.894653,1296.036377
	C1325.065918,1300.832153 1350.322632,1305.178711 1377.207642,1310.001953
M1587.000000,1931.859253
	C1640.989868,1931.858032 1694.979980,1931.951050 1748.969238,1931.767822
	C1758.601685,1931.735107 1768.296753,1931.060669 1777.845581,1929.796021
	C1793.737183,1927.691406 1808.213989,1922.137329 1819.040283,1909.550903
	C1826.200073,1901.227295 1833.756958,1893.163452 1840.132202,1884.264038
	C1852.771973,1866.619507 1863.521729,1847.804688 1870.175293,1827.010864
	C1875.474121,1810.450195 1867.935425,1797.539917 1851.078857,1794.024170
	C1844.939331,1792.743530 1838.540405,1792.184204 1832.259399,1792.181152
	C1641.629272,1792.087036 1450.999023,1792.095703 1260.368896,1792.150146
	C1255.737427,1792.151489 1251.014404,1792.402100 1246.491577,1793.315918
	C1231.732300,1796.298096 1223.462891,1805.739136 1222.075806,1820.835571
	C1221.710815,1824.808838 1221.724976,1828.824951 1221.717651,1832.821655
	C1221.683228,1851.484741 1221.675659,1870.147949 1221.720093,1888.810913
	C1221.731934,1893.806885 1221.642456,1898.834839 1222.149292,1903.791992
	C1223.639404,1918.361206 1231.928711,1927.675903 1246.202271,1930.503174
	C1251.375244,1931.527832 1256.768677,1931.800781 1262.061890,1931.804321
	C1369.707886,1931.876099 1477.354004,1931.858765 1587.000000,1931.859253
M1618.093994,816.231262
	C1623.864746,798.315918 1618.832764,783.379761 1605.052246,771.290527
	C1599.327148,766.268188 1593.241333,761.276367 1586.513550,757.856262
	C1572.320923,750.641418 1558.022095,743.230835 1543.017090,738.088562
	C1478.848999,716.097900 1412.963989,714.397583 1346.674561,724.970703
	C1274.153442,736.537842 1209.028076,765.218628 1152.989746,813.302429
	C1121.454224,840.361511 1093.195801,870.302734 1073.275879,907.189209
	C1068.725342,915.615540 1064.980347,924.589966 1061.904297,933.664612
	C1059.342773,941.221069 1059.712524,949.385254 1066.918945,954.524109
	C1073.830322,959.452454 1081.011719,956.916504 1087.281006,952.298401
	C1101.205933,942.041260 1115.274658,931.950073 1128.786011,921.166321
	C1158.520752,897.434570 1189.222168,875.265625 1224.056519,859.464172
	C1288.323853,830.311584 1353.790771,823.785828 1420.795898,849.570557
	C1442.206665,857.809814 1463.638062,866.054382 1484.689697,875.153503
	C1513.534058,887.621094 1540.900391,886.653137 1567.135132,868.601318
	C1569.873413,866.717102 1572.935547,865.292847 1575.617676,863.339661
	C1592.640503,850.943176 1609.427368,838.299805 1618.093994,816.231262
M1039.033936,1471.559082
	C1043.054565,1515.485962 1048.124268,1559.252563 1058.193604,1603.163330
	C1059.906006,1601.764160 1060.801392,1601.304688 1061.312500,1600.575684
	C1079.353760,1574.843872 1103.334229,1556.111084 1131.504883,1542.978149
	C1152.998779,1532.957764 1175.243530,1532.363892 1197.269043,1542.369751
	C1199.225098,1543.258301 1201.333496,1543.811279 1203.602295,1544.600464
	C1203.602295,1457.223267 1203.602295,1370.676270 1203.602295,1283.897217
	C1200.636963,1282.590820 1197.955933,1281.319946 1195.208862,1280.212891
	C1161.074219,1266.456055 1130.882446,1247.019775 1105.930664,1219.613403
	C1086.263306,1198.011230 1071.649902,1173.835083 1065.637451,1145.008423
	C1062.854736,1131.666626 1060.727051,1118.189087 1058.209351,1104.790405
	C1057.900513,1103.146606 1057.014648,1101.611328 1055.638550,1098.083862
	C1054.123169,1102.050293 1052.958252,1103.994263 1052.657104,1106.063965
	C1050.404175,1121.547485 1048.108032,1137.030029 1046.227173,1152.561401
	C1040.819824,1197.214233 1036.607788,1241.960693 1035.136475,1286.954468
	C1033.141602,1347.952881 1033.947510,1408.874390 1039.033936,1471.559082
M1356.393799,1615.748535
	C1365.597046,1614.379395 1374.887329,1613.426270 1383.979248,1611.525024
	C1393.224854,1609.591431 1393.285034,1609.062256 1393.286621,1599.454102
	C1393.300903,1511.868652 1393.300659,1424.283081 1393.268555,1336.697632
	C1393.267700,1334.129883 1392.871094,1331.562378 1392.583984,1328.087280
	C1376.011841,1324.700439 1359.877930,1320.649658 1343.504028,1318.207031
	C1304.280029,1312.355713 1265.547241,1304.556763 1227.778442,1292.302124
	C1226.049438,1291.740967 1224.125854,1291.779297 1221.699219,1291.460327
	C1221.699219,1295.756104 1221.699341,1299.396240 1221.699341,1303.036255
	C1221.699341,1372.638428 1221.699341,1442.240601 1221.699341,1511.842773
	C1221.699341,1524.830688 1221.838379,1537.821045 1221.621338,1550.805298
	C1221.548950,1555.136108 1222.651245,1558.329712 1226.169312,1561.085083
	C1233.503296,1566.829224 1240.199219,1573.443726 1247.811768,1578.764282
	C1259.782959,1587.131592 1271.831055,1595.594116 1284.680908,1602.453491
	C1306.404419,1614.049561 1330.335205,1616.138550 1356.393799,1615.748535
M1435.922485,1606.690063
	C1425.752686,1610.821899 1415.704712,1615.294434 1405.377563,1618.986084
	C1395.700317,1622.445679 1385.917725,1626.290283 1375.852539,1627.869995
	C1326.650513,1635.592041 1282.038696,1624.963501 1242.887451,1593.256958
	C1228.677734,1581.749268 1214.301880,1570.339233 1199.186279,1560.086914
	C1182.532959,1548.791626 1163.950684,1546.641357 1144.793945,1553.467285
	C1116.326538,1563.610962 1094.207642,1582.477905 1075.305420,1605.384155
	C1070.152100,1611.629150 1068.181641,1619.502441 1067.755371,1627.741211
	C1067.001099,1642.317383 1072.152344,1654.875366 1082.054199,1664.885620
	C1093.023804,1675.974854 1104.840332,1686.315063 1116.943237,1696.177246
	C1146.462646,1720.231689 1180.102295,1735.436035 1217.870117,1741.087280
	C1241.660645,1744.647095 1265.582153,1745.507324 1289.615601,1744.409546
	C1310.352173,1743.462158 1330.562012,1739.999146 1350.466553,1734.042603
	C1390.357910,1722.105103 1422.340088,1699.961426 1443.561279,1663.504761
	C1450.650146,1651.326416 1457.052124,1638.900269 1455.851807,1624.153809
	C1454.884033,1612.263184 1449.698730,1607.330933 1435.922485,1606.690063
M1221.697021,889.318604
	C1221.806396,921.265808 1221.146118,953.213074 1224.071533,985.114380
	C1225.955933,1005.663391 1226.257812,1026.359619 1228.220337,1046.898926
	C1231.320801,1079.346069 1247.403809,1104.121948 1275.733643,1120.045898
	C1287.516235,1126.668701 1300.300415,1132.202515 1313.300537,1135.817017
	C1337.962646,1142.673584 1363.104858,1147.807007 1388.064209,1153.584351
	C1389.535522,1153.924927 1391.154297,1153.628540 1392.634521,1153.628540
	C1394.660400,1130.210571 1393.780273,862.861145 1391.465942,854.634460
	C1332.306030,840.558167 1276.007446,849.698608 1221.697021,876.317017
	C1221.697021,880.794373 1221.697021,884.111267 1221.697021,889.318604
M1054.290649,1090.516235
	C1054.817871,1093.601074 1051.034912,1098.138306 1057.654541,1099.762207
	C1057.654541,1093.767944 1057.654541,1088.233398 1057.654541,1082.698853
	C1057.241089,1082.643555 1056.827515,1082.588379 1056.414062,1082.533081
	C1055.807373,1084.643433 1055.200684,1086.753662 1054.290649,1090.516235
M1082.000000,1689.000000
	C1082.399902,1689.266724 1082.799927,1689.533447 1083.199951,1689.800049
	C1083.133301,1689.200073 1083.066650,1688.599976 1082.000000,1689.000000
z"/>
<path fill="#383838" opacity="1.000000" stroke="none"
	d="
M1352.226562,696.345398
	C1371.285522,695.473022 1389.840820,699.663208 1408.499512,703.608459
	C1399.877686,705.446472 1391.378296,707.555786 1382.664429,703.977844
	C1373.212402,700.096924 1363.318848,699.685364 1352.497314,700.776367
	C1351.914673,699.391296 1352.127930,698.173828 1352.226562,696.345398
z"/>
<path fill="#010101" opacity="1.000000" stroke="none"
	d="
M1712.283569,2024.380371
	C1694.947388,2036.827026 1678.670654,2049.625244 1661.275269,2060.660156
	C1628.725342,2081.308105 1592.795776,2094.561035 1556.172729,2106.025391
	C1479.994507,2129.872559 1401.811768,2137.811279 1322.327881,2135.974854
	C1263.515015,2134.616211 1205.354736,2128.267578 1148.262451,2113.771484
	C1098.899536,2101.238281 1052.140503,2082.399902 1009.138123,2054.765869
	C973.798340,2032.055786 942.704041,2004.574097 916.630005,1971.632080
	C881.812012,1927.642944 856.339172,1878.412231 836.153809,1826.273438
	C811.962341,1763.787109 798.414612,1698.816162 789.543701,1632.590454
	C776.538208,1535.498901 774.277039,1437.972412 776.560730,1340.264893
	C778.205627,1269.885864 785.059875,1199.934692 798.152405,1130.717651
	C804.463196,1097.354370 811.632202,1064.122803 825.431458,1032.804199
	C838.788330,1002.489624 858.233887,976.575195 882.352783,954.001770
	C906.864563,931.060486 934.161987,912.233154 964.552917,897.964844
	C982.808533,889.393860 1002.018127,884.122375 1022.174438,882.876953
	C1027.763794,882.531555 1033.498657,883.117188 1039.053101,883.994873
	C1045.874268,885.072693 1051.339355,888.880920 1055.703369,894.240234
	C1058.949951,898.227173 1059.405396,902.013000 1056.949951,906.978821
	C1053.286499,914.387329 1050.298462,922.209106 1047.820557,930.105286
	C1044.450073,940.846313 1045.903809,951.355835 1052.441895,960.591125
	C1054.987793,964.187256 1054.351196,967.382507 1053.674561,970.938110
	C1047.449951,1003.642273 1040.370483,1036.210693 1035.169556,1069.076538
	C1026.945923,1121.044312 1019.153137,1173.079346 1015.473938,1225.670654
	C1010.184998,1301.272095 1009.911621,1376.875854 1014.400818,1452.463623
	C1018.736694,1525.470947 1029.632690,1597.587891 1049.828247,1667.960571
	C1073.728271,1751.242188 1118.998901,1820.959229 1186.141602,1876.111694
	C1191.529785,1880.537598 1197.419312,1884.353271 1203.128052,1888.490234
	C1204.036377,1896.311035 1204.355469,1904.305786 1205.980347,1912.025757
	C1210.215088,1932.145386 1224.622314,1945.357300 1244.932373,1948.230347
	C1250.519287,1949.020630 1256.209595,1949.420288 1261.852661,1949.422363
	C1423.504272,1949.484009 1585.155884,1949.513428 1746.807373,1949.388794
	C1759.081543,1949.379395 1771.354736,1948.192017 1783.517578,1947.557983
	C1779.988403,1959.595825 1749.122681,1993.048584 1712.283569,2024.380371
z"/>
<path fill="#010101" opacity="1.000000" stroke="none"
	d="
M938.939819,828.966064
	C916.286865,847.083130 894.240112,864.825195 872.011780,882.336731
	C865.061462,887.812134 857.181030,891.079773 847.937744,890.175171
	C837.555847,889.159058 830.677673,883.686279 827.767151,873.718689
	C824.839417,863.691833 825.780334,853.630920 829.540710,844.303955
	C834.748169,831.387878 840.291321,818.431946 847.346191,806.469421
	C867.219055,772.772522 891.924377,742.641541 918.122986,713.683594
	C945.449158,683.479187 974.909241,655.581726 1006.774658,630.203735
	C1087.904297,565.591003 1178.723755,521.852722 1280.910889,502.346222
	C1364.921753,486.309448 1449.511230,481.758636 1534.582031,490.502686
	C1605.112305,497.752197 1672.234985,517.480408 1735.679077,549.336792
	C1747.835571,555.440674 1761.124390,559.622009 1771.399414,569.005676
	C1778.515503,575.504395 1785.801270,582.027039 1791.769897,589.526917
	C1802.583618,603.115112 1805.566406,618.604736 1800.688232,635.641724
	C1795.764404,652.837708 1785.588257,666.779053 1773.834351,679.559692
	C1753.890625,701.245728 1730.786865,719.389648 1706.252197,735.501404
	C1675.677002,755.579834 1642.374023,759.244202 1607.762207,748.000854
	C1593.574829,743.392151 1579.896240,737.167480 1566.109253,731.384583
	C1525.890381,714.514771 1485.428955,698.360046 1443.095093,687.404114
	C1389.456909,673.522644 1335.098267,667.228821 1279.749146,672.354431
	C1227.686157,677.175781 1177.498413,689.695984 1129.110596,709.620422
	C1091.413818,725.142761 1055.464722,744.047119 1021.789978,766.845032
	C996.733459,783.808411 973.083252,802.850464 948.832886,821.001648
	C945.634521,823.395691 942.591064,825.996826 938.939819,828.966064
z"/>
<path fill="#010101" opacity="1.000000" stroke="none"
	d="
M1376.374268,1309.864258
	C1350.322632,1305.178711 1325.065918,1300.832153 1299.894653,1296.036377
	C1260.853760,1288.597900 1222.835693,1277.503052 1186.745361,1260.802002
	C1146.151978,1242.017456 1112.861694,1214.457764 1091.542480,1174.446045
	C1078.990479,1150.888428 1074.483154,1124.860718 1072.330688,1098.495483
	C1071.627319,1089.880371 1071.653564,1081.171997 1071.883423,1072.520752
	C1072.567383,1046.796387 1079.723999,1023.341675 1096.969849,1003.607605
	C1115.647095,982.235657 1137.300903,964.977905 1164.234009,955.044312
	C1172.824585,951.875916 1181.680664,950.725464 1190.772217,951.977783
	C1201.859131,953.504883 1207.518799,958.823486 1209.116821,969.787842
	C1209.832764,974.701233 1209.766724,979.749451 1209.798706,984.738220
	C1209.959473,1009.745056 1211.087036,1034.651367 1215.602905,1059.337891
	C1221.724609,1092.802856 1241.063110,1116.615967 1269.614746,1133.551514
	C1289.004150,1145.052490 1310.506104,1151.112427 1332.308228,1156.074341
	C1370.586792,1164.786133 1409.114746,1172.511108 1447.127441,1182.252808
	C1490.140137,1193.275635 1531.771484,1208.625488 1569.340332,1232.779907
	C1620.140015,1265.440918 1655.176147,1309.660767 1667.042236,1370.378784
	C1678.584595,1429.440186 1680.468506,1488.212891 1661.985596,1546.204834
	C1647.197388,1592.604370 1623.444946,1633.707520 1587.206787,1667.112793
	C1566.494995,1686.205566 1544.463867,1703.151855 1518.549072,1714.565308
	C1505.993164,1720.095337 1493.081055,1724.416870 1479.142822,1724.643677
	C1473.009033,1724.743530 1466.866089,1724.692993 1463.569580,1718.201294
	C1460.382080,1711.924438 1461.619629,1705.785156 1465.303589,1700.222900
	C1467.862061,1696.359497 1470.747314,1692.583984 1474.072510,1689.376831
	C1507.944946,1656.704224 1525.933350,1615.743774 1535.887085,1570.702148
	C1546.351929,1523.347290 1543.913452,1476.048218 1533.745117,1428.998657
	C1532.080688,1421.296875 1529.020630,1413.691162 1525.418213,1406.648193
	C1506.069580,1368.818604 1476.590698,1342.093872 1436.271973,1328.177979
	C1416.811035,1321.460938 1396.909668,1316.020386 1376.374268,1309.864258
z"/>
<path fill="#010101" opacity="1.000000" stroke="none"
	d="
M1586.000000,1931.859253
	C1477.354004,1931.858765 1369.707886,1931.876099 1262.061890,1931.804321
	C1256.768677,1931.800781 1251.375244,1931.527832 1246.202271,1930.503174
	C1231.928711,1927.675903 1223.639404,1918.361206 1222.149292,1903.791992
	C1221.642456,1898.834839 1221.731934,1893.806885 1221.720093,1888.810913
	C1221.675659,1870.147949 1221.683228,1851.484741 1221.717651,1832.821655
	C1221.724976,1828.824951 1221.710815,1824.808838 1222.075806,1820.835571
	C1223.462891,1805.739136 1231.732300,1796.298096 1246.491577,1793.315918
	C1251.014404,1792.402100 1255.737427,1792.151489 1260.368896,1792.150146
	C1450.999023,1792.095703 1641.629272,1792.087036 1832.259399,1792.181152
	C1838.540405,1792.184204 1844.939331,1792.743530 1851.078857,1794.024170
	C1867.935425,1797.539917 1875.474121,1810.450195 1870.175293,1827.010864
	C1863.521729,1847.804688 1852.771973,1866.619507 1840.132202,1884.264038
	C1833.756958,1893.163452 1826.200073,1901.227295 1819.040283,1909.550903
	C1808.213989,1922.137329 1793.737183,1927.691406 1777.845581,1929.796021
	C1768.296753,1931.060669 1758.601685,1931.735107 1748.969238,1931.767822
	C1694.979980,1931.951050 1640.989868,1931.858032 1586.000000,1931.859253
z"/>
<path fill="#020202" opacity="1.000000" stroke="none"
	d="
M1617.869263,817.001587
	C1609.427368,838.299805 1592.640503,850.943176 1575.617676,863.339661
	C1572.935547,865.292847 1569.873413,866.717102 1567.135132,868.601318
	C1540.900391,886.653137 1513.534058,887.621094 1484.689697,875.153503
	C1463.638062,866.054382 1442.206665,857.809814 1420.795898,849.570557
	C1353.790771,823.785828 1288.323853,830.311584 1224.056519,859.464172
	C1189.222168,875.265625 1158.520752,897.434570 1128.786011,921.166321
	C1115.274658,931.950073 1101.205933,942.041260 1087.281006,952.298401
	C1081.011719,956.916504 1073.830322,959.452454 1066.918945,954.524109
	C1059.712524,949.385254 1059.342773,941.221069 1061.904297,933.664612
	C1064.980347,924.589966 1068.725342,915.615540 1073.275879,907.189209
	C1093.195801,870.302734 1121.454224,840.361511 1152.989746,813.302429
	C1209.028076,765.218628 1274.153442,736.537842 1346.674561,724.970703
	C1412.963989,714.397583 1478.848999,716.097900 1543.017090,738.088562
	C1558.022095,743.230835 1572.320923,750.641418 1586.513550,757.856262
	C1593.241333,761.276367 1599.327148,766.268188 1605.052246,771.290527
	C1618.832764,783.379761 1623.864746,798.315918 1617.869263,817.001587
z"/>
<path fill="#020202" opacity="1.000000" stroke="none"
	d="
M1038.922974,1470.641846
	C1033.947510,1408.874390 1033.141602,1347.952881 1035.136475,1286.954468
	C1036.607788,1241.960693 1040.819824,1197.214233 1046.227173,1152.561401
	C1048.108032,1137.030029 1050.404175,1121.547485 1052.657104,1106.063965
	C1052.958252,1103.994263 1054.123169,1102.050293 1055.638550,1098.083862
	C1057.014648,1101.611328 1057.900513,1103.146606 1058.209351,1104.790405
	C1060.727051,1118.189087 1062.854736,1131.666626 1065.637451,1145.008423
	C1071.649902,1173.835083 1086.263306,1198.011230 1105.930664,1219.613403
	C1130.882446,1247.019775 1161.074219,1266.456055 1195.208862,1280.212891
	C1197.955933,1281.319946 1200.636963,1282.590820 1203.602295,1283.897217
	C1203.602295,1370.676270 1203.602295,1457.223267 1203.602295,1544.600464
	C1201.333496,1543.811279 1199.225098,1543.258301 1197.269043,1542.369751
	C1175.243530,1532.363892 1152.998779,1532.957764 1131.504883,1542.978149
	C1103.334229,1556.111084 1079.353760,1574.843872 1061.312500,1600.575684
	C1060.801392,1601.304688 1059.906006,1601.764160 1058.193604,1603.163330
	C1048.124268,1559.252563 1043.054565,1515.485962 1038.922974,1470.641846
z"/>
<path fill="#020202" opacity="1.000000" stroke="none"
	d="
M1355.470703,1615.764160
	C1330.335205,1616.138550 1306.404419,1614.049561 1284.680908,1602.453491
	C1271.831055,1595.594116 1259.782959,1587.131592 1247.811768,1578.764282
	C1240.199219,1573.443726 1233.503296,1566.829224 1226.169312,1561.085083
	C1222.651245,1558.329712 1221.548950,1555.136108 1221.621338,1550.805298
	C1221.838379,1537.821045 1221.699341,1524.830688 1221.699341,1511.842773
	C1221.699341,1442.240601 1221.699341,1372.638428 1221.699341,1303.036255
	C1221.699341,1299.396240 1221.699219,1295.756104 1221.699219,1291.460327
	C1224.125854,1291.779297 1226.049438,1291.740967 1227.778442,1292.302124
	C1265.547241,1304.556763 1304.280029,1312.355713 1343.504028,1318.207031
	C1359.877930,1320.649658 1376.011841,1324.700439 1392.583984,1328.087280
	C1392.871094,1331.562378 1393.267700,1334.129883 1393.268555,1336.697632
	C1393.300659,1424.283081 1393.300903,1511.868652 1393.286621,1599.454102
	C1393.285034,1609.062256 1393.224854,1609.591431 1383.979248,1611.525024
	C1374.887329,1613.426270 1365.597046,1614.379395 1355.470703,1615.764160
z"/>
<path fill="#020202" opacity="1.000000" stroke="none"
	d="
M1436.688721,1606.532471
	C1449.698730,1607.330933 1454.884033,1612.263184 1455.851807,1624.153809
	C1457.052124,1638.900269 1450.650146,1651.326416 1443.561279,1663.504761
	C1422.340088,1699.961426 1390.357910,1722.105103 1350.466553,1734.042603
	C1330.562012,1739.999146 1310.352173,1743.462158 1289.615601,1744.409546
	C1265.582153,1745.507324 1241.660645,1744.647095 1217.870117,1741.087280
	C1180.102295,1735.436035 1146.462646,1720.231689 1116.943237,1696.177246
	C1104.840332,1686.315063 1093.023804,1675.974854 1082.054199,1664.885620
	C1072.152344,1654.875366 1067.001099,1642.317383 1067.755371,1627.741211
	C1068.181641,1619.502441 1070.152100,1611.629150 1075.305420,1605.384155
	C1094.207642,1582.477905 1116.326538,1563.610962 1144.793945,1553.467285
	C1163.950684,1546.641357 1182.532959,1548.791626 1199.186279,1560.086914
	C1214.301880,1570.339233 1228.677734,1581.749268 1242.887451,1593.256958
	C1282.038696,1624.963501 1326.650513,1635.592041 1375.852539,1627.869995
	C1385.917725,1626.290283 1395.700317,1622.445679 1405.377563,1618.986084
	C1415.704712,1615.294434 1425.752686,1610.821899 1436.688721,1606.532471
z"/>
<path fill="#020202" opacity="1.000000" stroke="none"
	d="
M1221.697021,888.373352
	C1221.697021,884.111267 1221.697021,880.794373 1221.697021,876.317017
	C1276.007446,849.698608 1332.306030,840.558167 1391.465942,854.634460
	C1393.780273,862.861145 1394.660400,1130.210571 1392.634521,1153.628540
	C1391.154297,1153.628540 1389.535522,1153.924927 1388.064209,1153.584351
	C1363.104858,1147.807007 1337.962646,1142.673584 1313.300537,1135.817017
	C1300.300415,1132.202515 1287.516235,1126.668701 1275.733643,1120.045898
	C1247.403809,1104.121948 1231.320801,1079.346069 1228.220337,1046.898926
	C1226.257812,1026.359619 1225.955933,1005.663391 1224.071533,985.114380
	C1221.146118,953.213074 1221.806396,921.265808 1221.697021,888.373352
z"/>
<path fill="#0A0A0A" opacity="1.000000" stroke="none"
	d="
M1068.360962,1013.818359
	C1071.270752,1000.167969 1074.180542,986.517578 1077.185913,972.419067
	C1099.464600,965.210693 1116.097290,949.149719 1134.323120,935.296753
	C1155.752930,919.008667 1178.057861,903.871643 1200.013794,888.278503
	C1200.729248,887.770325 1201.779053,887.732849 1203.396240,887.268311
	C1203.396240,905.046692 1203.396240,922.394775 1203.396240,940.179260
	C1179.149902,932.856445 1157.529541,939.657104 1137.229492,951.645935
	C1111.123901,967.063354 1088.614746,986.560730 1071.660889,1013.379883
	C1069.935913,1013.926147 1069.148438,1013.872253 1068.360962,1013.818359
z"/>
<path fill="#717171" opacity="1.000000" stroke="none"
	d="
M1054.442383,1089.690063
	C1055.200684,1086.753662 1055.807373,1084.643433 1056.414062,1082.533081
	C1056.827515,1082.588379 1057.241089,1082.643555 1057.654541,1082.698853
	C1057.654541,1088.233398 1057.654541,1093.767944 1057.654541,1099.762207
	C1051.034912,1098.138306 1054.817871,1093.601074 1054.442383,1089.690063
z"/>
<path fill="#616161" opacity="1.000000" stroke="none"
	d="
M1068.013428,1014.433960
	C1069.148438,1013.872253 1069.935913,1013.926147 1071.315186,1013.960815
	C1071.133545,1016.068420 1070.483276,1018.251709 1069.542725,1020.301819
	C1068.935669,1021.624878 1067.903198,1022.752747 1065.687866,1025.951294
	C1066.633789,1020.737427 1067.149780,1017.893494 1068.013428,1014.433960
z"/>
<path fill="#000000" opacity="1.000000" stroke="none"
	d="
M1082.500000,1688.500000
	C1083.066650,1688.599976 1083.133301,1689.200073 1083.199951,1689.800049
	C1082.799927,1689.533447 1082.399902,1689.266724 1082.500000,1688.500000
z"/>
</svg>
