<svg version="1.1" id="Layer_1" xmlns="http://www.w3.org/2000/svg" xmlns:xlink="http://www.w3.org/1999/xlink" x="0px" y="0px"
	 width="100%" viewBox="0 0 1657 1833" enable-background="new 0 0 1657 1833" xml:space="preserve">
<path fill="#000000" opacity="1.000000" stroke="none" 
	d="
M1658.000000,692.000000 
	C1658.000000,1072.999878 1658.000000,1453.499756 1658.000000,1833.999756 
	C1105.666992,1833.999756 553.333862,1833.999756 1.000626,1833.999878 
	C1.000417,1223.000488 1.000417,612.000916 1.000209,1.001036 
	C553.332703,1.000690 1105.665405,1.000690 1657.999023,1.000345 
	C1658.000000,231.166672 1658.000000,461.333344 1658.000000,692.000000 
M1147.350830,358.307892 
	C1179.155273,361.179504 1208.826294,354.272339 1235.200562,336.489960 
	C1252.804688,324.620667 1269.441895,311.188904 1285.721069,297.515045 
	C1306.239746,280.280212 1324.022339,260.563171 1335.179932,235.677582 
	C1342.717529,218.865738 1345.128174,201.528778 1340.295898,183.590668 
	C1334.761108,163.044159 1320.714966,148.411774 1305.338257,134.899170 
	C1300.617188,130.750458 1295.645386,126.541420 1290.090210,123.749794 
	C1270.494019,113.902267 1250.815430,104.157883 1230.758301,95.302856 
	C1201.210938,82.257965 1170.583374,72.035995 1139.248413,64.282249 
	C1096.486938,53.701042 1053.052612,46.921207 1008.992615,45.264191 
	C926.214050,42.151039 844.254822,48.319981 763.488647,67.762604 
	C715.921509,79.213310 670.254456,95.548691 626.608704,117.759117 
	C588.379578,137.213165 552.336548,160.036880 518.376526,186.138306 
	C476.289520,218.486115 438.092102,254.976181 403.614716,295.358063 
	C377.424591,326.033386 352.582245,357.647949 334.151093,393.789795 
	C324.321136,413.065491 317.671356,433.006989 320.860016,455.147644 
	C323.643646,474.476044 335.710693,488.282257 353.685577,493.076080 
	C371.757172,497.895691 387.858795,493.078674 402.270782,482.669861 
	C417.759308,471.483582 432.568329,459.337036 447.435760,447.315002 
	C467.224335,431.313721 486.348083,414.459900 506.544434,399.000488 
	C535.221680,377.049377 565.344116,357.203125 597.128052,339.881989 
	C625.970703,324.163727 655.861450,310.900696 686.916382,300.380707 
	C725.700867,287.242340 765.553711,279.153900 806.511780,276.626007 
	C837.561401,274.709656 868.464722,275.744049 899.242432,280.169189 
	C909.047913,281.579010 918.786255,283.455383 928.555359,285.118317 
	C916.766235,286.268463 905.460815,287.550842 893.593872,283.667969 
	C877.211914,278.307800 860.510071,282.627167 844.723206,288.370911 
	C826.039001,295.168762 808.317322,304.282593 789.260254,310.402130 
	C749.368713,323.211975 712.869080,342.985168 679.524780,368.311615 
	C646.353760,393.506409 616.667358,422.254578 592.697449,456.565338 
	C591.863281,457.759369 590.886963,458.854065 590.486145,459.356567 
	C583.709290,454.735382 577.735229,449.493011 570.832397,446.194214 
	C555.778748,439.000488 539.634399,440.300720 523.709290,442.541138 
	C490.557373,447.205139 461.205322,461.527527 433.449738,479.371613 
	C409.020691,495.077087 386.636536,513.291992 367.003296,534.881531 
	C350.666992,552.845520 337.014008,572.515808 325.861267,594.043213 
	C313.122528,618.632019 305.626678,645.079651 299.485626,671.771545 
	C288.954834,717.543274 281.193817,763.882507 277.222992,810.714111 
	C274.324432,844.899109 272.324249,879.174011 270.617065,913.443298 
	C267.271362,980.604126 269.277802,1047.731689 273.302917,1114.800415 
	C276.127625,1161.866943 280.939423,1208.714600 288.744049,1255.276611 
	C295.961792,1298.337158 305.407623,1340.777832 319.043823,1382.280151 
	C328.186859,1410.107422 338.847687,1437.292847 351.545837,1463.701294 
	C369.103699,1500.216309 389.298035,1535.070190 414.537994,1566.906616 
	C447.862305,1608.940186 488.360260,1642.497070 534.852600,1668.894287 
	C568.239197,1687.850220 603.694763,1702.140503 640.542114,1712.711304 
	C688.696472,1726.525757 737.895508,1734.695557 787.895996,1737.996582 
	C829.840210,1740.765747 871.847595,1742.188232 913.768494,1738.853882 
	C943.944275,1736.453979 974.216675,1733.534180 1003.995544,1728.289307 
	C1046.776123,1720.754517 1088.667114,1709.096436 1128.729736,1691.970581 
	C1148.253540,1683.624756 1167.691284,1674.745117 1186.135132,1664.285889 
	C1211.931274,1649.657593 1235.307007,1631.353638 1257.501343,1611.656616 
	C1288.912720,1583.779785 1316.292358,1552.429932 1338.741943,1516.855225 
	C1341.477661,1512.520142 1344.043579,1507.917969 1347.535645,1504.245361 
	C1372.893433,1477.577271 1392.068115,1447.147583 1403.969482,1412.284912 
	C1410.909058,1391.957520 1399.610229,1369.666138 1383.823975,1362.564697 
	C1372.213257,1357.341553 1360.150879,1356.085205 1347.778442,1356.083130 
	C1157.453247,1356.052124 967.128113,1356.061401 776.802979,1356.063721 
	C774.969910,1356.063721 773.134949,1356.047729 771.304138,1356.121582 
	C742.836548,1357.270264 725.159851,1371.622925 721.539551,1398.297241 
	C719.848389,1410.757812 720.809692,1423.577759 720.551880,1436.234497 
	C720.517700,1437.909546 720.383484,1439.582520 720.225342,1442.594238 
	C661.865601,1394.399902 620.835999,1335.931274 596.102905,1265.961426 
	C597.094238,1266.104492 597.755188,1266.513672 598.350281,1267.002930 
	C609.648560,1276.289795 620.694885,1285.903442 632.279358,1294.817749 
	C660.922485,1316.859009 693.371948,1330.292725 728.950317,1336.218628 
	C738.141052,1337.749512 747.672668,1337.855591 756.582642,1340.306763 
	C770.647156,1344.175903 784.812073,1346.765503 799.315857,1347.491577 
	C825.984741,1348.826538 852.653992,1349.222534 878.863831,1342.947998 
	C899.141479,1338.093872 915.321899,1327.868042 923.050415,1307.269653 
	C923.535461,1305.977051 924.705994,1304.761841 925.858826,1303.926147 
	C948.275391,1287.680054 965.083740,1266.716064 977.850525,1242.336426 
	C984.966125,1228.748413 989.002625,1214.594482 985.958862,1199.077393 
	C982.112793,1179.469604 964.693665,1169.207764 945.774963,1175.575562 
	C939.681946,1177.626343 933.679199,1179.945068 927.297485,1182.263916 
	C927.297485,1093.256714 927.297485,1004.714355 927.297485,915.887207 
	C928.508484,916.097717 929.548767,916.074097 930.406677,916.458008 
	C946.150452,923.502319 962.302490,929.785706 977.502808,937.859253 
	C1003.279907,951.550537 1019.295898,974.557861 1031.646606,1000.025391 
	C1039.128052,1015.452576 1040.290283,1032.805054 1042.383179,1049.610229 
	C1048.261719,1096.811401 1043.694092,1142.929321 1027.030884,1187.722412 
	C1016.236084,1216.740234 999.986755,1241.970459 977.712524,1263.575562 
	C972.533630,1268.598755 968.332153,1275.512329 965.930176,1282.346680 
	C959.340576,1301.096924 969.824524,1320.807007 993.461670,1320.783203 
	C1007.178040,1320.769287 1020.139526,1317.206177 1032.836792,1312.546753 
	C1052.682007,1305.264526 1070.301147,1294.092651 1087.169067,1281.484253 
	C1103.640381,1269.172485 1118.567017,1255.223999 1132.293701,1240.024902 
	C1147.180542,1223.541016 1159.181763,1205.048096 1169.721802,1185.449951 
	C1190.125977,1147.509766 1202.451904,1107.131348 1205.444702,1064.327881 
	C1208.586182,1019.396484 1205.290039,974.762512 1193.402588,931.065308 
	C1185.234985,901.041992 1170.589722,874.526123 1150.226807,850.994690 
	C1133.427246,831.581116 1114.354492,814.861755 1092.681274,801.207336 
	C1073.643188,789.213074 1053.227905,779.805176 1032.426880,771.351379 
	C999.545166,757.987915 965.480164,748.324219 930.933777,740.390381 
	C926.792297,739.439270 927.065247,737.359863 927.065735,734.499207 
	C927.081177,638.836670 927.078491,543.174072 927.078491,447.511536 
	C927.078491,446.110657 927.078613,444.709747 927.078613,442.908142 
	C929.939758,443.800262 932.196838,444.344147 934.331848,445.194366 
	C955.940979,453.800110 977.512085,462.501251 999.130310,471.083893 
	C1018.015259,478.581360 1037.396118,483.390594 1057.550293,477.286438 
	C1090.349243,467.352356 1117.309937,448.490082 1138.135254,421.336792 
	C1152.656616,402.402740 1155.680786,381.583344 1146.020752,358.961578 
	C1146.175049,358.788147 1146.329346,358.614685 1147.350830,358.307892 
z"/>
<path fill="#FAFAFA" opacity="1.000000" stroke="none" 
	d="
M1145.522339,359.447784 
	C1155.680786,381.583344 1152.656616,402.402740 1138.135254,421.336792 
	C1117.309937,448.490082 1090.349243,467.352356 1057.550293,477.286438 
	C1037.396118,483.390594 1018.015259,478.581360 999.130310,471.083893 
	C977.512085,462.501251 955.940979,453.800110 934.331848,445.194366 
	C932.196838,444.344147 929.939758,443.800262 927.078613,442.908142 
	C927.078613,444.709747 927.078491,446.110657 927.078491,447.511536 
	C927.078491,543.174072 927.081177,638.836670 927.065735,734.499207 
	C927.065247,737.359863 926.792297,739.439270 930.933777,740.390381 
	C965.480164,748.324219 999.545166,757.987915 1032.426880,771.351379 
	C1053.227905,779.805176 1073.643188,789.213074 1092.681274,801.207336 
	C1114.354492,814.861755 1133.427246,831.581116 1150.226807,850.994690 
	C1170.589722,874.526123 1185.234985,901.041992 1193.402588,931.065308 
	C1205.290039,974.762512 1208.586182,1019.396484 1205.444702,1064.327881 
	C1202.451904,1107.131348 1190.125977,1147.509766 1169.721802,1185.449951 
	C1159.181763,1205.048096 1147.180542,1223.541016 1132.293701,1240.024902 
	C1118.567017,1255.223999 1103.640381,1269.172485 1087.169067,1281.484253 
	C1070.301147,1294.092651 1052.682007,1305.264526 1032.836792,1312.546753 
	C1020.139526,1317.206177 1007.178040,1320.769287 993.461670,1320.783203 
	C969.824524,1320.807007 959.340576,1301.096924 965.930176,1282.346680 
	C968.332153,1275.512329 972.533630,1268.598755 977.712524,1263.575562 
	C999.986755,1241.970459 1016.236084,1216.740234 1027.030884,1187.722412 
	C1043.694092,1142.929321 1048.261719,1096.811401 1042.383179,1049.610229 
	C1040.290283,1032.805054 1039.128052,1015.452576 1031.646606,1000.025391 
	C1019.295898,974.557861 1003.279907,951.550537 977.502808,937.859253 
	C962.302490,929.785706 946.150452,923.502319 930.406677,916.458008 
	C929.548767,916.074097 928.508484,916.097717 927.297485,915.887207 
	C927.297485,1004.714355 927.297485,1093.256714 927.297485,1182.263916 
	C933.679199,1179.945068 939.681946,1177.626343 945.774963,1175.575562 
	C964.693665,1169.207764 982.112793,1179.469604 985.958862,1199.077393 
	C989.002625,1214.594482 984.966125,1228.748413 977.850525,1242.336426 
	C965.083740,1266.716064 948.275391,1287.680054 925.858826,1303.926147 
	C924.705994,1304.761841 923.535461,1305.977051 923.050415,1307.269653 
	C915.321899,1327.868042 899.141479,1338.093872 878.863831,1342.947998 
	C852.653992,1349.222534 825.984741,1348.826538 799.315857,1347.491577 
	C784.812073,1346.765503 770.647156,1344.175903 756.582642,1340.306763 
	C747.672668,1337.855591 738.141052,1337.749512 728.950317,1336.218628 
	C693.371948,1330.292725 660.922485,1316.859009 632.279358,1294.817749 
	C620.694885,1285.903442 609.648560,1276.289795 598.350281,1267.002930 
	C597.755188,1266.513672 597.094238,1266.104492 596.102905,1265.961426 
	C620.835999,1335.931274 661.865601,1394.399902 720.225342,1442.594238 
	C720.383484,1439.582520 720.517700,1437.909546 720.551880,1436.234497 
	C720.809692,1423.577759 719.848389,1410.757812 721.539551,1398.297241 
	C725.159851,1371.622925 742.836548,1357.270264 771.304138,1356.121582 
	C773.134949,1356.047729 774.969910,1356.063721 776.802979,1356.063721 
	C967.128113,1356.061401 1157.453247,1356.052124 1347.778442,1356.083130 
	C1360.150879,1356.085205 1372.213257,1357.341553 1383.823975,1362.564697 
	C1399.610229,1369.666138 1410.909058,1391.957520 1403.969482,1412.284912 
	C1392.068115,1447.147583 1372.893433,1477.577271 1347.535645,1504.245361 
	C1344.043579,1507.917969 1341.477661,1512.520142 1338.741943,1516.855225 
	C1316.292358,1552.429932 1288.912720,1583.779785 1257.501343,1611.656616 
	C1235.307007,1631.353638 1211.931274,1649.657593 1186.135132,1664.285889 
	C1167.691284,1674.745117 1148.253540,1683.624756 1128.729736,1691.970581 
	C1088.667114,1709.096436 1046.776123,1720.754517 1003.995544,1728.289307 
	C974.216675,1733.534180 943.944275,1736.453979 913.768494,1738.853882 
	C871.847595,1742.188232 829.840210,1740.765747 787.895996,1737.996582 
	C737.895508,1734.695557 688.696472,1726.525757 640.542114,1712.711304 
	C603.694763,1702.140503 568.239197,1687.850220 534.852600,1668.894287 
	C488.360260,1642.497070 447.862305,1608.940186 414.537994,1566.906616 
	C389.298035,1535.070190 369.103699,1500.216309 351.545837,1463.701294 
	C338.847687,1437.292847 328.186859,1410.107422 319.043823,1382.280151 
	C305.407623,1340.777832 295.961792,1298.337158 288.744049,1255.276611 
	C280.939423,1208.714600 276.127625,1161.866943 273.302917,1114.800415 
	C269.277802,1047.731689 267.271362,980.604126 270.617065,913.443298 
	C272.324249,879.174011 274.324432,844.899109 277.222992,810.714111 
	C281.193817,763.882507 288.954834,717.543274 299.485626,671.771545 
	C305.626678,645.079651 313.122528,618.632019 325.861267,594.043213 
	C337.014008,572.515808 350.666992,552.845520 367.003296,534.881531 
	C386.636536,513.291992 409.020691,495.077087 433.449738,479.371613 
	C461.205322,461.527527 490.557373,447.205139 523.709290,442.541138 
	C539.634399,440.300720 555.778748,439.000488 570.832397,446.194214 
	C577.735229,449.493011 583.709290,454.735382 590.486145,459.356567 
	C590.886963,458.854065 591.863281,457.759369 592.697449,456.565338 
	C616.667358,422.254578 646.353760,393.506409 679.524780,368.311615 
	C712.869080,342.985168 749.368713,323.211975 789.260254,310.402130 
	C808.317322,304.282593 826.039001,295.168762 844.723206,288.370911 
	C860.510071,282.627167 877.211914,278.307800 893.593872,283.667969 
	C905.460815,287.550842 916.766235,286.268463 928.555359,285.118317 
	C918.786255,283.455383 909.047913,281.579010 899.242432,280.169189 
	C868.464722,275.744049 837.561401,274.709656 806.511780,276.626007 
	C765.553711,279.153900 725.700867,287.242340 686.916382,300.380707 
	C655.861450,310.900696 625.970703,324.163727 597.128052,339.881989 
	C565.344116,357.203125 535.221680,377.049377 506.544434,399.000488 
	C486.348083,414.459900 467.224335,431.313721 447.435760,447.315002 
	C432.568329,459.337036 417.759308,471.483582 402.270782,482.669861 
	C387.858795,493.078674 371.757172,497.895691 353.685577,493.076080 
	C335.710693,488.282257 323.643646,474.476044 320.860016,455.147644 
	C317.671356,433.006989 324.321136,413.065491 334.151093,393.789795 
	C352.582245,357.647949 377.424591,326.033386 403.614716,295.358063 
	C438.092102,254.976181 476.289520,218.486115 518.376526,186.138306 
	C552.336548,160.036880 588.379578,137.213165 626.608704,117.759117 
	C670.254456,95.548691 715.921509,79.213310 763.488647,67.762604 
	C844.254822,48.319981 926.214050,42.151039 1008.992615,45.264191 
	C1053.052612,46.921207 1096.486938,53.701042 1139.248413,64.282249 
	C1170.583374,72.035995 1201.210938,82.257965 1230.758301,95.302856 
	C1250.815430,104.157883 1270.494019,113.902267 1290.090210,123.749794 
	C1295.645386,126.541420 1300.617188,130.750458 1305.338257,134.899170 
	C1320.714966,148.411774 1334.761108,163.044159 1340.295898,183.590668 
	C1345.128174,201.528778 1342.717529,218.865738 1335.179932,235.677582 
	C1324.022339,260.563171 1306.239746,280.280212 1285.721069,297.515045 
	C1269.441895,311.188904 1252.804688,324.620667 1235.200562,336.489960 
	C1208.826294,354.272339 1179.155273,361.179504 1146.689819,358.255737 
	C1145.859985,358.618317 1145.691162,359.033051 1145.522339,359.447784 
M790.500000,1530.830566 
	C781.675232,1530.605225 772.794617,1530.924194 764.038757,1530.026489 
	C751.079041,1528.697510 739.776123,1523.885620 731.463257,1512.975464 
	C722.894043,1501.729004 720.332336,1488.980713 720.665466,1475.389648 
	C720.765503,1471.308472 719.314514,1469.067139 715.958496,1467.020508 
	C711.142944,1464.083862 706.531860,1460.747803 702.119812,1457.223633 
	C671.313782,1432.618042 645.817383,1403.216064 623.354919,1370.916626 
	C599.988647,1337.317993 582.627686,1300.856201 570.093079,1262.069580 
	C560.106567,1231.167480 553.245300,1199.462402 547.458557,1167.518188 
	C539.645142,1124.386230 533.038818,1081.056152 531.270264,1037.238770 
	C529.429626,991.631775 528.255676,945.969299 528.159058,900.328125 
	C528.052124,849.817017 530.948364,799.341614 537.514282,749.252686 
	C543.505493,703.548462 551.031128,658.036194 558.457031,612.533447 
	C561.964905,591.038818 566.864441,569.772705 570.975342,548.372681 
	C571.268494,546.846497 570.729309,544.708923 569.778198,543.468140 
	C563.361572,535.097717 561.292358,525.471863 563.621582,515.618774 
	C565.778259,506.495972 569.479675,497.672302 573.159973,488.996490 
	C576.149231,481.949768 576.205261,479.881500 570.844421,474.090759 
	C563.296936,465.937958 553.562622,463.949402 543.068787,464.190796 
	C509.147003,464.971039 479.283264,478.045074 451.114410,495.470184 
	C425.413391,511.368683 401.964386,530.158447 381.768097,552.846558 
	C366.620392,569.863159 353.869904,588.493652 344.179810,609.052368 
	C330.610840,637.840454 322.951996,668.576721 317.271179,699.667236 
	C311.201355,732.886902 305.486359,766.261536 301.840240,799.810181 
	C297.685913,838.035156 294.723022,876.485962 293.472504,914.911255 
	C290.336487,1011.273376 292.534241,1107.492920 304.670166,1203.327148 
	C311.308441,1255.747681 320.452637,1307.574585 335.731384,1358.254028 
	C343.948334,1385.509521 353.591431,1412.189331 365.179474,1438.171143 
	C383.670044,1479.628784 405.615021,1519.083862 434.152924,1554.558105 
	C467.139526,1595.562622 507.324066,1628.023926 553.616516,1652.817749 
	C584.916809,1669.582031 617.928162,1682.123291 652.121155,1691.904053 
	C687.961304,1702.156006 724.531067,1708.305054 761.390808,1712.491333 
	C787.009399,1715.401123 812.885376,1716.502808 838.680908,1717.309570 
	C911.504944,1719.587036 983.375977,1712.798584 1053.752686,1693.017578 
	C1096.609131,1680.971802 1138.317993,1666.140991 1176.670166,1643.036743 
	C1204.440063,1626.307617 1229.928711,1606.524780 1253.213745,1584.066162 
	C1266.239746,1571.502319 1278.176392,1557.792969 1290.347046,1544.366821 
	C1294.785034,1539.471313 1298.478882,1533.901123 1303.096558,1527.876343 
	C1271.624390,1532.691895 1241.256592,1530.699707 1210.981445,1530.742798 
	C1071.154541,1530.941895 931.327209,1530.830566 790.500000,1530.830566 
M486.108093,385.618225 
	C503.663483,373.000153 520.619202,359.420471 538.924561,348.005035 
	C562.296509,333.430023 586.528625,320.175049 610.810181,307.133423 
	C639.019104,291.982452 669.079773,281.106812 699.733398,272.146942 
	C732.698914,262.511230 766.380005,256.228638 800.688843,253.567673 
	C833.376099,251.032486 866.005066,251.667389 898.406616,256.530334 
	C944.779480,263.490082 989.864929,275.542511 1033.381714,293.122437 
	C1056.172607,302.329529 1078.810059,311.918762 1101.473755,321.438019 
	C1123.155884,330.545074 1145.291626,337.226044 1169.233398,335.129333 
	C1186.174805,333.645630 1202.557983,329.901581 1217.018311,320.714966 
	C1243.492798,303.895660 1268.199097,284.681671 1289.724854,261.811066 
	C1301.472778,249.329071 1311.619995,235.516342 1316.809937,218.630142 
	C1322.483887,200.169357 1319.095093,183.587036 1306.836792,169.080276 
	C1295.495117,155.658340 1282.210449,144.816498 1265.966797,137.083359 
	C1233.365723,121.563034 1200.623169,106.471703 1166.066406,95.867432 
	C1127.663940,84.083076 1088.526367,75.755501 1048.458130,71.690025 
	C984.308716,65.181206 920.308533,67.272453 856.419678,74.402985 
	C814.359131,79.097305 773.061523,87.818138 732.470276,100.023438 
	C696.681946,110.784531 662.290405,124.856590 629.270447,142.194946 
	C596.242615,159.537369 564.862427,179.598862 535.221497,202.280121 
	C511.019623,220.799484 487.683136,240.378235 466.412018,262.240601 
	C450.763977,278.323639 435.141846,294.488983 420.479065,311.456696 
	C407.121826,326.913635 394.864136,343.342621 382.502686,359.632233 
	C369.301758,377.028137 358.020905,395.634247 349.411377,415.767731 
	C345.048248,425.970917 342.351013,436.485016 342.936615,447.758789 
	C343.921051,466.709961 359.860565,477.598328 377.248810,469.764343 
	C386.956024,465.390839 396.009857,459.027832 404.389618,452.346649 
	C431.700348,430.571899 458.565430,408.238312 486.108093,385.618225 
M588.112793,664.411316 
	C589.449951,678.313293 589.993286,692.347778 592.285889,706.090332 
	C597.408203,736.795471 608.789795,764.559326 630.141541,788.216858 
	C650.792725,811.098145 674.632935,829.279297 702.442566,841.993896 
	C743.022034,860.546875 785.674744,872.648926 829.643921,880.041931 
	C868.839783,886.632324 908.173889,892.365662 945.591858,906.842957 
	C973.977356,917.825500 1000.797424,930.809204 1020.136719,955.543701 
	C1032.791016,971.728333 1045.275024,988.148926 1049.727173,1008.653198 
	C1053.143555,1024.388062 1055.617798,1040.408813 1057.265381,1056.430664 
	C1061.802002,1100.548950 1057.604736,1143.770508 1042.941528,1185.892334 
	C1032.002441,1217.316040 1016.145935,1245.535767 992.263428,1269.002930 
	C988.603577,1272.599121 984.896423,1276.463623 982.455261,1280.890137 
	C980.232117,1284.921387 978.738647,1289.865967 978.646484,1294.442749 
	C978.504517,1301.494385 983.293640,1305.618530 990.398743,1306.143677 
	C992.387329,1306.290771 994.398499,1306.293701 996.391296,1306.197266 
	C1017.071228,1305.197876 1035.662354,1297.479004 1052.924683,1286.948853 
	C1066.506226,1278.664062 1079.874634,1269.618164 1091.823608,1259.177612 
	C1105.413330,1247.303711 1118.088867,1234.156738 1129.778809,1220.388916 
	C1147.223755,1199.842896 1159.501831,1176.036255 1169.933716,1151.211426 
	C1181.514160,1123.652710 1188.665894,1095.027222 1190.874512,1065.313843 
	C1193.401245,1031.318481 1192.284790,997.396484 1185.974731,963.771667 
	C1181.292603,938.821289 1175.434204,914.116455 1161.911987,892.333618 
	C1153.893188,879.416504 1144.119141,867.538208 1134.614746,855.606812 
	C1122.483643,840.378174 1107.315674,828.371765 1091.311279,817.514954 
	C1073.218872,805.241638 1053.570435,795.751953 1033.466187,787.320435 
	C1001.666870,773.984070 968.779053,763.857849 935.208130,756.128845 
	C904.422180,749.041016 873.400146,742.980652 842.602539,735.941040 
	C816.850098,730.054626 792.334351,721.310059 771.061890,704.652771 
	C752.950439,690.470642 739.720459,672.839905 734.654541,650.739014 
	C730.331970,631.881470 728.947998,612.286072 727.159424,592.934326 
	C725.950562,579.855713 726.527954,566.622009 725.877258,553.478943 
	C725.268494,541.182373 719.409851,534.545654 707.108093,533.619080 
	C699.640564,533.056763 691.780457,533.822693 684.486450,535.595459 
	C665.261658,540.267883 649.617310,551.835571 634.602173,564.019165 
	C622.428772,573.897034 611.383118,585.100037 603.386475,598.736938 
	C591.698975,618.667786 587.367859,640.493713 588.112793,664.411316 
M1193.499878,1513.218506 
	C1196.166382,1513.218506 1198.833374,1513.248535 1201.499512,1513.213989 
	C1230.644165,1512.835693 1259.814453,1513.057129 1288.924194,1511.837280 
	C1306.958862,1511.081421 1323.028564,1504.636353 1336.005859,1490.862305 
	C1358.471436,1467.016846 1375.461548,1439.911743 1386.547729,1409.206543 
	C1392.669434,1392.251343 1384.252319,1378.400146 1366.470215,1375.176392 
	C1360.453125,1374.085571 1354.221558,1373.787354 1348.087891,1373.785034 
	C1157.614990,1373.715942 967.142029,1373.728027 776.669067,1373.733521 
	C774.003296,1373.733643 771.332520,1373.716431 768.672668,1373.862915 
	C751.539673,1374.806030 741.009949,1383.976440 738.800720,1400.977173 
	C737.734009,1409.185791 738.087585,1417.597290 738.053894,1425.917969 
	C737.980408,1444.081543 737.818054,1462.250366 738.164185,1480.408203 
	C738.521851,1499.173218 747.760925,1509.852539 765.590820,1512.723877 
	C769.180298,1513.301880 772.899475,1513.199951 776.558838,1513.200439 
	C915.205811,1513.221924 1053.852783,1513.218506 1193.499878,1513.218506 
M763.566284,431.093262 
	C784.481445,424.280243 805.637451,418.672852 827.652893,416.558594 
	C859.167908,413.531921 890.332397,414.602600 920.343018,425.501984 
	C948.118591,435.589630 975.611267,446.478241 1003.062378,457.430420 
	C1026.948608,466.960327 1050.422852,468.826996 1073.735474,455.938660 
	C1093.377563,445.079590 1111.831665,432.570007 1125.625244,414.577087 
	C1140.873901,394.686127 1142.384888,370.568573 1120.786133,351.894623 
	C1104.255249,337.602173 1084.893799,328.348267 1064.665894,321.177032 
	C1022.698120,306.298584 979.246887,299.874237 934.706543,300.448730 
	C884.038452,301.102264 834.679871,308.922211 786.924561,326.233490 
	C748.129089,340.296844 712.441833,360.024200 680.331421,385.833801 
	C646.036133,413.399658 615.273560,444.348480 592.989685,482.840149 
	C586.148682,494.656708 579.001526,506.373047 577.470459,520.307800 
	C576.774963,526.637024 577.879333,532.921082 583.871155,536.579468 
	C589.714722,540.147278 595.788025,539.004700 601.337769,535.497559 
	C607.380310,531.678955 613.478760,527.884949 619.148315,523.551147 
	C639.489868,508.002228 659.355713,491.815460 679.973022,476.646973 
	C705.504272,457.863220 733.099121,442.594727 763.566284,431.093262 
M551.063965,968.487732 
	C552.574707,1041.576538 559.581238,1114.046753 574.672607,1186.233887 
	C579.452637,1179.784424 582.991577,1173.591797 587.849792,1168.712646 
	C604.317444,1152.173584 621.905518,1137.000610 643.175354,1126.676270 
	C667.832092,1114.707764 692.496704,1112.679565 717.382935,1125.889160 
	C718.188354,1126.316772 719.172607,1126.407104 720.263184,1126.706665 
	C720.382568,1125.402100 720.550842,1124.420776 720.551025,1123.439453 
	C720.563171,1038.625122 720.552917,953.810791 720.606323,868.996460 
	C720.608032,866.322815 719.931519,864.906250 717.210449,863.850891 
	C688.799988,852.832031 662.297302,838.553162 639.547485,817.919128 
	C624.822449,804.563721 611.518677,789.997314 600.911194,773.113464 
	C585.493408,748.573303 579.659790,720.977295 575.597656,692.855713 
	C574.551941,685.616577 573.969177,678.310608 573.173706,671.035339 
	C571.827820,671.985291 571.535034,672.897156 571.404541,673.831665 
	C568.158752,697.073547 564.295105,720.251099 561.846191,743.577087 
	C558.108398,779.179382 554.152527,814.829102 552.499390,850.560974 
	C550.698975,889.477112 551.421265,928.510071 551.063965,968.487732 
M738.022217,1112.500000 
	C738.022339,1119.829956 737.814941,1127.169556 738.151062,1134.484131 
	C738.249695,1136.630615 739.320862,1139.407104 740.915161,1140.703735 
	C753.804810,1151.186646 766.549438,1161.911011 780.047791,1171.570312 
	C817.834778,1198.610596 859.697083,1202.532837 903.845764,1192.179688 
	C908.143433,1191.171753 909.930603,1189.262695 909.921326,1184.397705 
	C909.750061,1094.771240 909.795898,1005.144287 909.795837,915.517456 
	C909.795837,913.871704 909.795837,912.226013 909.795837,909.527588 
	C890.121582,905.683350 870.579407,901.882080 851.044617,898.043518 
	C828.051331,893.525452 804.976929,889.369751 782.106201,884.296753 
	C767.395569,881.033813 752.988647,876.401672 738.022217,872.266296 
	C738.022217,952.029236 738.022217,1031.764648 738.022217,1112.500000 
M783.497864,1326.421143 
	C811.426880,1326.625977 839.003540,1324.407104 865.858521,1315.872681 
	C886.125916,1309.431763 905.680054,1301.459961 922.559143,1288.409058 
	C940.286926,1274.701782 953.746033,1257.114746 964.360107,1237.458374 
	C970.121338,1226.788940 973.908325,1215.495483 972.055786,1202.989868 
	C970.255310,1190.835327 960.655762,1185.055054 949.154907,1189.401855 
	C945.579285,1190.753540 942.028992,1192.177246 938.501038,1193.649170 
	C919.011047,1201.780273 899.710693,1209.978638 878.069580,1211.415405 
	C832.946777,1214.411011 792.969849,1202.350830 757.921753,1173.562744 
	C744.447998,1162.495361 730.621765,1151.767700 716.268005,1141.884644 
	C699.652466,1130.444214 681.086121,1128.127075 661.940369,1134.672974 
	C634.197021,1144.158203 612.768311,1162.617676 593.733276,1184.191895 
	C587.203003,1191.593384 584.416138,1200.589966 584.085449,1210.335815 
	C583.566101,1225.644653 589.766785,1238.620239 600.499817,1248.664307 
	C614.428101,1261.698242 629.191711,1273.925171 644.287170,1285.606079 
	C666.858215,1303.071411 692.682861,1313.871216 720.489563,1319.986328 
	C740.910706,1324.477295 761.638123,1326.103027 783.497864,1326.421143 
M738.022034,497.500000 
	C737.492432,519.473572 738.690674,541.347107 740.667358,563.247559 
	C742.476501,583.292358 742.524841,603.491333 744.093384,623.564209 
	C745.290588,638.886230 748.816101,653.713867 756.819031,667.236877 
	C770.883362,691.002258 792.531982,705.149048 817.764771,713.674683 
	C837.244263,720.256348 857.447571,724.761169 877.447510,729.710754 
	C888.000732,732.322510 898.807312,733.910583 909.796204,736.017761 
	C909.796204,730.914001 909.796204,726.422363 909.796204,721.930725 
	C909.796204,629.129883 909.752991,536.328918 909.914673,443.528351 
	C909.923462,438.507568 908.853149,435.909546 903.578674,435.162903 
	C893.543884,433.742340 883.630432,430.999817 873.565674,430.334778 
	C827.303955,427.277893 783.115967,435.320526 741.512512,456.330902 
	C738.658264,457.772369 737.907166,459.500824 737.953003,462.512939 
	C738.125244,473.839722 738.022034,485.170624 738.022034,497.500000 
M614.624634,544.162781 
	C608.466125,547.002380 602.255005,549.736511 596.190735,552.764893 
	C594.874756,553.422058 593.491943,554.991150 593.153992,556.385925 
	C591.392944,563.654480 589.957764,571.002075 588.412292,578.322876 
	C586.508911,587.339539 584.608643,596.356995 582.706970,605.374084 
	C585.668518,601.355530 587.479187,596.883301 590.034363,592.887146 
	C609.007080,563.215332 635.125244,541.541260 666.690857,526.589233 
	C680.940247,519.839600 696.249329,516.264404 712.303589,519.898376 
	C714.965942,520.501038 717.594116,521.254761 720.107727,521.904907 
	C720.107727,503.652771 720.107727,485.833862 720.107727,466.427277 
	C702.048218,479.094330 684.818115,490.676392 668.144836,503.011108 
	C650.249146,516.250122 632.876709,530.196472 614.624634,544.162781 
z"/>
<path fill="#010101" opacity="1.000000" stroke="none" 
	d="
M791.000000,1530.830566 
	C931.327209,1530.830566 1071.154541,1530.941895 1210.981445,1530.742798 
	C1241.256592,1530.699707 1271.624390,1532.691895 1303.096558,1527.876343 
	C1298.478882,1533.901123 1294.785034,1539.471313 1290.347046,1544.366821 
	C1278.176392,1557.792969 1266.239746,1571.502319 1253.213745,1584.066162 
	C1229.928711,1606.524780 1204.440063,1626.307617 1176.670166,1643.036743 
	C1138.317993,1666.140991 1096.609131,1680.971802 1053.752686,1693.017578 
	C983.375977,1712.798584 911.504944,1719.587036 838.680908,1717.309570 
	C812.885376,1716.502808 787.009399,1715.401123 761.390808,1712.491333 
	C724.531067,1708.305054 687.961304,1702.156006 652.121155,1691.904053 
	C617.928162,1682.123291 584.916809,1669.582031 553.616516,1652.817749 
	C507.324066,1628.023926 467.139526,1595.562622 434.152924,1554.558105 
	C405.615021,1519.083862 383.670044,1479.628784 365.179474,1438.171143 
	C353.591431,1412.189331 343.948334,1385.509521 335.731384,1358.254028 
	C320.452637,1307.574585 311.308441,1255.747681 304.670166,1203.327148 
	C292.534241,1107.492920 290.336487,1011.273376 293.472504,914.911255 
	C294.723022,876.485962 297.685913,838.035156 301.840240,799.810181 
	C305.486359,766.261536 311.201355,732.886902 317.271179,699.667236 
	C322.951996,668.576721 330.610840,637.840454 344.179810,609.052368 
	C353.869904,588.493652 366.620392,569.863159 381.768097,552.846558 
	C401.964386,530.158447 425.413391,511.368683 451.114410,495.470184 
	C479.283264,478.045074 509.147003,464.971039 543.068787,464.190796 
	C553.562622,463.949402 563.296936,465.937958 570.844421,474.090759 
	C576.205261,479.881500 576.149231,481.949768 573.159973,488.996490 
	C569.479675,497.672302 565.778259,506.495972 563.621582,515.618774 
	C561.292358,525.471863 563.361572,535.097717 569.778198,543.468140 
	C570.729309,544.708923 571.268494,546.846497 570.975342,548.372681 
	C566.864441,569.772705 561.964905,591.038818 558.457031,612.533447 
	C551.031128,658.036194 543.505493,703.548462 537.514282,749.252686 
	C530.948364,799.341614 528.052124,849.817017 528.159058,900.328125 
	C528.255676,945.969299 529.429626,991.631775 531.270264,1037.238770 
	C533.038818,1081.056152 539.645142,1124.386230 547.458557,1167.518188 
	C553.245300,1199.462402 560.106567,1231.167480 570.093079,1262.069580 
	C582.627686,1300.856201 599.988647,1337.317993 623.354919,1370.916626 
	C645.817383,1403.216064 671.313782,1432.618042 702.119812,1457.223633 
	C706.531860,1460.747803 711.142944,1464.083862 715.958496,1467.020508 
	C719.314514,1469.067139 720.765503,1471.308472 720.665466,1475.389648 
	C720.332336,1488.980713 722.894043,1501.729004 731.463257,1512.975464 
	C739.776123,1523.885620 751.079041,1528.697510 764.038757,1530.026489 
	C772.794617,1530.924194 781.675232,1530.605225 791.000000,1530.830566 
z"/>
<path fill="#010101" opacity="1.000000" stroke="none" 
	d="
M485.855042,385.868988 
	C458.565430,408.238312 431.700348,430.571899 404.389618,452.346649 
	C396.009857,459.027832 386.956024,465.390839 377.248810,469.764343 
	C359.860565,477.598328 343.921051,466.709961 342.936615,447.758789 
	C342.351013,436.485016 345.048248,425.970917 349.411377,415.767731 
	C358.020905,395.634247 369.301758,377.028137 382.502686,359.632233 
	C394.864136,343.342621 407.121826,326.913635 420.479065,311.456696 
	C435.141846,294.488983 450.763977,278.323639 466.412018,262.240601 
	C487.683136,240.378235 511.019623,220.799484 535.221497,202.280121 
	C564.862427,179.598862 596.242615,159.537369 629.270447,142.194946 
	C662.290405,124.856590 696.681946,110.784531 732.470276,100.023438 
	C773.061523,87.818138 814.359131,79.097305 856.419678,74.402985 
	C920.308533,67.272453 984.308716,65.181206 1048.458130,71.690025 
	C1088.526367,75.755501 1127.663940,84.083076 1166.066406,95.867432 
	C1200.623169,106.471703 1233.365723,121.563034 1265.966797,137.083359 
	C1282.210449,144.816498 1295.495117,155.658340 1306.836792,169.080276 
	C1319.095093,183.587036 1322.483887,200.169357 1316.809937,218.630142 
	C1311.619995,235.516342 1301.472778,249.329071 1289.724854,261.811066 
	C1268.199097,284.681671 1243.492798,303.895660 1217.018311,320.714966 
	C1202.557983,329.901581 1186.174805,333.645630 1169.233398,335.129333 
	C1145.291626,337.226044 1123.155884,330.545074 1101.473755,321.438019 
	C1078.810059,311.918762 1056.172607,302.329529 1033.381714,293.122437 
	C989.864929,275.542511 944.779480,263.490082 898.406616,256.530334 
	C866.005066,251.667389 833.376099,251.032486 800.688843,253.567673 
	C766.380005,256.228638 732.698914,262.511230 699.733398,272.146942 
	C669.079773,281.106812 639.019104,291.982452 610.810181,307.133423 
	C586.528625,320.175049 562.296509,333.430023 538.924561,348.005035 
	C520.619202,359.420471 503.663483,373.000153 485.855042,385.868988 
z"/>
<path fill="#010101" opacity="1.000000" stroke="none" 
	d="
M588.106689,663.925110 
	C587.367859,640.493713 591.698975,618.667786 603.386475,598.736938 
	C611.383118,585.100037 622.428772,573.897034 634.602173,564.019165 
	C649.617310,551.835571 665.261658,540.267883 684.486450,535.595459 
	C691.780457,533.822693 699.640564,533.056763 707.108093,533.619080 
	C719.409851,534.545654 725.268494,541.182373 725.877258,553.478943 
	C726.527954,566.622009 725.950562,579.855713 727.159424,592.934326 
	C728.947998,612.286072 730.331970,631.881470 734.654541,650.739014 
	C739.720459,672.839905 752.950439,690.470642 771.061890,704.652771 
	C792.334351,721.310059 816.850098,730.054626 842.602539,735.941040 
	C873.400146,742.980652 904.422180,749.041016 935.208130,756.128845 
	C968.779053,763.857849 1001.666870,773.984070 1033.466187,787.320435 
	C1053.570435,795.751953 1073.218872,805.241638 1091.311279,817.514954 
	C1107.315674,828.371765 1122.483643,840.378174 1134.614746,855.606812 
	C1144.119141,867.538208 1153.893188,879.416504 1161.911987,892.333618 
	C1175.434204,914.116455 1181.292603,938.821289 1185.974731,963.771667 
	C1192.284790,997.396484 1193.401245,1031.318481 1190.874512,1065.313843 
	C1188.665894,1095.027222 1181.514160,1123.652710 1169.933716,1151.211426 
	C1159.501831,1176.036255 1147.223755,1199.842896 1129.778809,1220.388916 
	C1118.088867,1234.156738 1105.413330,1247.303711 1091.823608,1259.177612 
	C1079.874634,1269.618164 1066.506226,1278.664062 1052.924683,1286.948853 
	C1035.662354,1297.479004 1017.071228,1305.197876 996.391296,1306.197266 
	C994.398499,1306.293701 992.387329,1306.290771 990.398743,1306.143677 
	C983.293640,1305.618530 978.504517,1301.494385 978.646484,1294.442749 
	C978.738647,1289.865967 980.232117,1284.921387 982.455261,1280.890137 
	C984.896423,1276.463623 988.603577,1272.599121 992.263428,1269.002930 
	C1016.145935,1245.535767 1032.002441,1217.316040 1042.941528,1185.892334 
	C1057.604736,1143.770508 1061.802002,1100.548950 1057.265381,1056.430664 
	C1055.617798,1040.408813 1053.143555,1024.388062 1049.727173,1008.653198 
	C1045.275024,988.148926 1032.791016,971.728333 1020.136719,955.543701 
	C1000.797424,930.809204 973.977356,917.825500 945.591858,906.842957 
	C908.173889,892.365662 868.839783,886.632324 829.643921,880.041931 
	C785.674744,872.648926 743.022034,860.546875 702.442566,841.993896 
	C674.632935,829.279297 650.792725,811.098145 630.141541,788.216858 
	C608.789795,764.559326 597.408203,736.795471 592.285889,706.090332 
	C589.993286,692.347778 589.449951,678.313293 588.106689,663.925110 
z"/>
<path fill="#000000" opacity="1.000000" stroke="none" 
	d="
M1192.999756,1513.218506 
	C1053.852783,1513.218506 915.205811,1513.221924 776.558838,1513.200439 
	C772.899475,1513.199951 769.180298,1513.301880 765.590820,1512.723877 
	C747.760925,1509.852539 738.521851,1499.173218 738.164185,1480.408203 
	C737.818054,1462.250366 737.980408,1444.081543 738.053894,1425.917969 
	C738.087585,1417.597290 737.734009,1409.185791 738.800720,1400.977173 
	C741.009949,1383.976440 751.539673,1374.806030 768.672668,1373.862915 
	C771.332520,1373.716431 774.003296,1373.733643 776.669067,1373.733521 
	C967.142029,1373.728027 1157.614990,1373.715942 1348.087891,1373.785034 
	C1354.221558,1373.787354 1360.453125,1374.085571 1366.470215,1375.176392 
	C1384.252319,1378.400146 1392.669434,1392.251343 1386.547729,1409.206543 
	C1375.461548,1439.911743 1358.471436,1467.016846 1336.005859,1490.862305 
	C1323.028564,1504.636353 1306.958862,1511.081421 1288.924194,1511.837280 
	C1259.814453,1513.057129 1230.644165,1512.835693 1201.499512,1513.213989 
	C1198.833374,1513.248535 1196.166382,1513.218506 1192.999756,1513.218506 
z"/>
<path fill="#010101" opacity="1.000000" stroke="none" 
	d="
M763.193359,431.218964 
	C733.099121,442.594727 705.504272,457.863220 679.973022,476.646973 
	C659.355713,491.815460 639.489868,508.002228 619.148315,523.551147 
	C613.478760,527.884949 607.380310,531.678955 601.337769,535.497559 
	C595.788025,539.004700 589.714722,540.147278 583.871155,536.579468 
	C577.879333,532.921082 576.774963,526.637024 577.470459,520.307800 
	C579.001526,506.373047 586.148682,494.656708 592.989685,482.840149 
	C615.273560,444.348480 646.036133,413.399658 680.331421,385.833801 
	C712.441833,360.024200 748.129089,340.296844 786.924561,326.233490 
	C834.679871,308.922211 884.038452,301.102264 934.706543,300.448730 
	C979.246887,299.874237 1022.698120,306.298584 1064.665894,321.177032 
	C1084.893799,328.348267 1104.255249,337.602173 1120.786133,351.894623 
	C1142.384888,370.568573 1140.873901,394.686127 1125.625244,414.577087 
	C1111.831665,432.570007 1093.377563,445.079590 1073.735474,455.938660 
	C1050.422852,468.826996 1026.948608,466.960327 1003.062378,457.430420 
	C975.611267,446.478241 948.118591,435.589630 920.343018,425.501984 
	C890.332397,414.602600 859.167908,413.531921 827.652893,416.558594 
	C805.637451,418.672852 784.481445,424.280243 763.193359,431.218964 
z"/>
<path fill="#010101" opacity="1.000000" stroke="none" 
	d="
M551.053833,967.989868 
	C551.421265,928.510071 550.698975,889.477112 552.499390,850.560974 
	C554.152527,814.829102 558.108398,779.179382 561.846191,743.577087 
	C564.295105,720.251099 568.158752,697.073547 571.404541,673.831665 
	C571.535034,672.897156 571.827820,671.985291 573.173706,671.035339 
	C573.969177,678.310608 574.551941,685.616577 575.597656,692.855713 
	C579.659790,720.977295 585.493408,748.573303 600.911194,773.113464 
	C611.518677,789.997314 624.822449,804.563721 639.547485,817.919128 
	C662.297302,838.553162 688.799988,852.832031 717.210449,863.850891 
	C719.931519,864.906250 720.608032,866.322815 720.606323,868.996460 
	C720.552917,953.810791 720.563171,1038.625122 720.551025,1123.439453 
	C720.550842,1124.420776 720.382568,1125.402100 720.263184,1126.706665 
	C719.172607,1126.407104 718.188354,1126.316772 717.382935,1125.889160 
	C692.496704,1112.679565 667.832092,1114.707764 643.175354,1126.676270 
	C621.905518,1137.000610 604.317444,1152.173584 587.849792,1168.712646 
	C582.991577,1173.591797 579.452637,1179.784424 574.672607,1186.233887 
	C559.581238,1114.046753 552.574707,1041.576538 551.053833,967.989868 
z"/>
<path fill="#010101" opacity="1.000000" stroke="none" 
	d="
M738.022217,1112.000000 
	C738.022217,1031.764648 738.022217,952.029236 738.022217,872.266296 
	C752.988647,876.401672 767.395569,881.033813 782.106201,884.296753 
	C804.976929,889.369751 828.051331,893.525452 851.044617,898.043518 
	C870.579407,901.882080 890.121582,905.683350 909.795837,909.527588 
	C909.795837,912.226013 909.795837,913.871704 909.795837,915.517456 
	C909.795898,1005.144287 909.750061,1094.771240 909.921326,1184.397705 
	C909.930603,1189.262695 908.143433,1191.171753 903.845764,1192.179688 
	C859.697083,1202.532837 817.834778,1198.610596 780.047791,1171.570312 
	C766.549438,1161.911011 753.804810,1151.186646 740.915161,1140.703735 
	C739.320862,1139.407104 738.249695,1136.630615 738.151062,1134.484131 
	C737.814941,1127.169556 738.022339,1119.829956 738.022217,1112.000000 
z"/>
<path fill="#010101" opacity="1.000000" stroke="none" 
	d="
M782.997681,1326.415283 
	C761.638123,1326.103027 740.910706,1324.477295 720.489563,1319.986328 
	C692.682861,1313.871216 666.858215,1303.071411 644.287170,1285.606079 
	C629.191711,1273.925171 614.428101,1261.698242 600.499817,1248.664307 
	C589.766785,1238.620239 583.566101,1225.644653 584.085449,1210.335815 
	C584.416138,1200.589966 587.203003,1191.593384 593.733276,1184.191895 
	C612.768311,1162.617676 634.197021,1144.158203 661.940369,1134.672974 
	C681.086121,1128.127075 699.652466,1130.444214 716.268005,1141.884644 
	C730.621765,1151.767700 744.447998,1162.495361 757.921753,1173.562744 
	C792.969849,1202.350830 832.946777,1214.411011 878.069580,1211.415405 
	C899.710693,1209.978638 919.011047,1201.780273 938.501038,1193.649170 
	C942.028992,1192.177246 945.579285,1190.753540 949.154907,1189.401855 
	C960.655762,1185.055054 970.255310,1190.835327 972.055786,1202.989868 
	C973.908325,1215.495483 970.121338,1226.788940 964.360107,1237.458374 
	C953.746033,1257.114746 940.286926,1274.701782 922.559143,1288.409058 
	C905.680054,1301.459961 886.125916,1309.431763 865.858521,1315.872681 
	C839.003540,1324.407104 811.426880,1326.625977 782.997681,1326.415283 
z"/>
<path fill="#010101" opacity="1.000000" stroke="none" 
	d="
M738.022034,497.000000 
	C738.022034,485.170624 738.125244,473.839722 737.953003,462.512939 
	C737.907166,459.500824 738.658264,457.772369 741.512512,456.330902 
	C783.115967,435.320526 827.303955,427.277893 873.565674,430.334778 
	C883.630432,430.999817 893.543884,433.742340 903.578674,435.162903 
	C908.853149,435.909546 909.923462,438.507568 909.914673,443.528351 
	C909.752991,536.328918 909.796204,629.129883 909.796204,721.930725 
	C909.796204,726.422363 909.796204,730.914001 909.796204,736.017761 
	C898.807312,733.910583 888.000732,732.322510 877.447510,729.710754 
	C857.447571,724.761169 837.244263,720.256348 817.764771,713.674683 
	C792.531982,705.149048 770.883362,691.002258 756.819031,667.236877 
	C748.816101,653.713867 745.290588,638.886230 744.093384,623.564209 
	C742.524841,603.491333 742.476501,583.292358 740.667358,563.247559 
	C738.690674,541.347107 737.492432,519.473572 738.022034,497.000000 
z"/>
<path fill="#070707" opacity="1.000000" stroke="none" 
	d="
M614.950317,543.998474 
	C632.876709,530.196472 650.249146,516.250122 668.144836,503.011108 
	C684.818115,490.676392 702.048218,479.094330 720.107727,466.427277 
	C720.107727,485.833862 720.107727,503.652771 720.107727,521.904907 
	C717.594116,521.254761 714.965942,520.501038 712.303589,519.898376 
	C696.249329,516.264404 680.940247,519.839600 666.690857,526.589233 
	C635.125244,541.541260 609.007080,563.215332 590.034363,592.887146 
	C587.479187,596.883301 585.668518,601.355530 582.706970,605.374084 
	C584.608643,596.356995 586.508911,587.339539 588.412292,578.322876 
	C589.957764,571.002075 591.392944,563.654480 593.153992,556.385925 
	C593.491943,554.991150 594.874756,553.422058 596.190735,552.764893 
	C602.255005,549.736511 608.466125,547.002380 614.950317,543.998474 
z"/>
<path fill="#000000" opacity="1.000000" stroke="none" 
	d="
M1145.771484,359.204681 
	C1145.691162,359.033051 1145.859985,358.618317 1146.256104,358.322418 
	C1146.329346,358.614685 1146.175049,358.788147 1145.771484,359.204681 
z"/>
</svg>